<?xml version="1.0" standalone="no"?>
<!DOCTYPE svg PUBLIC "-//W3C//DTD SVG 1.1//EN" "http://www.w3.org/Graphics/SVG/1.1/DTD/svg11.dtd" >
<svg xmlns="http://www.w3.org/2000/svg">
<metadata>
Created by FontForge 20120731 at Wed Jan 27 10:54:42 2016
 By Ads
</metadata>
<defs>
<font id="iconfont" horiz-adv-x="1024" >
  <font-face 
    font-family="iconfont"
    font-weight="500"
    font-stretch="normal"
    units-per-em="1024"
    panose-1="2 0 6 3 0 0 0 0 0 0"
    ascent="896"
    descent="-128"
    x-height="792"
    bbox="0 -128 1329 896.167"
    underline-thickness="50"
    underline-position="-100"
    unicode-range="U+0078-F0253"
  />
<missing-glyph horiz-adv-x="374" 
d="M34 0v682h272v-682h-272zM68 34h204v614h-204v-614z" />
    <glyph glyph-name=".notdef" horiz-adv-x="374" 
d="M34 0v682h272v-682h-272zM68 34h204v614h-204v-614z" />
    <glyph glyph-name=".null" horiz-adv-x="0" 
 />
    <glyph glyph-name="nonmarkingreturn" horiz-adv-x="341" 
 />
    <glyph glyph-name="x" unicode="x" horiz-adv-x="1001" 
d="M281 543q-27 -1 -53 -1h-83q-18 0 -36.5 -6t-32.5 -18.5t-23 -32t-9 -45.5v-76h912v41q0 16 -0.5 30t-0.5 18q0 13 -5 29t-17 29.5t-31.5 22.5t-49.5 9h-133v-97h-438v97zM955 310v-52q0 -23 0.5 -52t0.5 -58t-10.5 -47.5t-26 -30t-33 -16t-31.5 -4.5q-14 -1 -29.5 -0.5
t-29.5 0.5h-32l-45 128h-439l-44 -128h-29h-34q-20 0 -45 1q-25 0 -41 9.5t-25.5 23t-13.5 29.5t-4 30v167h911zM163 247q-12 0 -21 -8.5t-9 -21.5t9 -21.5t21 -8.5q13 0 22 8.5t9 21.5t-9 21.5t-22 8.5zM316 123q-8 -26 -14 -48q-5 -19 -10.5 -37t-7.5 -25t-3 -15t1 -14.5
t9.5 -10.5t21.5 -4h37h67h81h80h64h36q23 0 34 12t2 38q-5 13 -9.5 30.5t-9.5 34.5q-5 19 -11 39h-368zM336 498v228q0 11 2.5 23t10 21.5t20.5 15.5t34 6h188q31 0 51.5 -14.5t20.5 -52.5v-227h-327z" />
    <glyph glyph-name="uniE60A" unicode="&#xe60a;" 
d="M512 835q-73 0 -142 -23t-124.5 -64.5t-97 -97t-64.5 -124.5t-23 -142q0 -92 36 -175.5t96 -143.5t143.5 -96t175.5 -36t175.5 36t143.5 96t96 143.5t36 175.5q0 73 -23 142t-64.5 124.5t-97 97t-124.5 64.5t-142 23zM512 -31q-113 0 -208.5 55.5t-151 151t-55.5 208.5
t55.5 208.5t151 151t208.5 55.5t208.5 -55.5t151 -151t55.5 -208.5q0 -160 -108 -279q-106 -116 -260 -133q-24 -3 -47 -3zM490 570zM260 392q0 93 28 140t79 47q20 0 36.5 -7.5t29.5 -22.5t22 -37t14 -52.5t5 -67.5q0 -94 -28.5 -141.5t-78.5 -47.5q-51 0 -79 47.5
t-28 141.5zM445 392q0 79 -21 120.5t-57 41.5q-18 0 -32.5 -10t-24.5 -30t-15.5 -51t-5.5 -71q0 -41 5.5 -72.5t15.5 -51.5t24.5 -30.5t32.5 -10.5q57 0 73 98q5 30 5 67zM546 235h82v295h-63v20q41 7 69 22h23v-337h76v-26h-187v26z" />
    <glyph glyph-name="uniE60B" unicode="&#xe60b;" 
d="M490 570zM512 835q-73 0 -142 -23t-124.5 -64.5t-97 -97t-64.5 -124.5t-23 -142q0 -92 36 -175.5t96 -143.5t143.5 -96t175.5 -36t175.5 36t143.5 96t96 143.5t36 175.5q0 73 -23 142t-64.5 124.5t-97 97t-124.5 64.5t-142 23zM512 -31q-113 0 -208.5 55.5t-151 151
t-55.5 208.5t55.5 208.5t151 151t208.5 55.5t208.5 -55.5t151 -151t55.5 -208.5q0 -160 -108 -279q-106 -116 -260 -133q-24 -3 -47 -3zM284 228h82v296h-63v19q41 7 69 23h24v-338h75v-25h-187v25zM527 293q0 23 11 44.5t25.5 35t33.5 24.5v2q-50 33 -50 82q0 20 7 36.5
t19.5 28.5t30 18.5t36.5 6.5q30 0 52 -12.5t33.5 -34t11.5 -48.5t-15.5 -51t-34.5 -39v-3q62 -37 62 -95q0 -19 -8 -36t-22 -29t-34.5 -19.5t-44.5 -7.5q-32 0 -58 12.5t-40.5 35t-14.5 49.5zM720 289q0 20 -8 35t-26 26.5t-31.5 18t-40.5 17.5q-59 -36 -59 -92
q0 -32 24 -53t61 -21q14 0 26.5 3.5t22 9.5t16.5 14.5t11 19t4 22.5zM710 475q0 20 -8 36t-24.5 26.5t-37.5 10.5q-29 0 -47 -19t-18 -48q0 -33 23 -51.5t67 -35.5q45 36 45 81z" />
    <glyph glyph-name="uniE60C" unicode="&#xe60c;" 
d="M512 835q-73 0 -142 -23t-124.5 -64.5t-97 -97t-64.5 -124.5t-23 -142q0 -92 36 -175.5t96 -143.5t143.5 -96t175.5 -36t175.5 36t143.5 96t96 143.5t36 175.5q0 73 -23 142t-64.5 124.5t-97 97t-124.5 64.5t-142 23zM512 -31q-113 0 -208.5 55.5t-151 151t-55.5 208.5
t55.5 208.5t151 151t208.5 55.5t208.5 -55.5t151 -151t55.5 -208.5q0 -160 -108 -279q-106 -116 -260 -133q-24 -3 -47 -3zM490 570zM265 386q0 92 28 139t79 47q25 0 44.5 -11.5t33.5 -34.5t21 -58.5t7 -81.5q0 -94 -28 -142t-78 -48q-83 0 -102 119q-5 32 -5 71zM449 386
q0 32 -3.5 58t-10 45.5t-16 32.5t-21.5 19.5t-26 6.5q-37 0 -57.5 -41.5t-20.5 -120.5q0 -81 20.5 -123t57.5 -42q36 0 56.5 42t20.5 123zM527 221q91 78 131.5 137t40.5 109q0 36 -18.5 58.5t-55.5 22.5q-44 0 -81 -45l-18 17q22 25 46.5 38.5t55.5 13.5q47 0 74 -28
t27 -76q0 -28 -10.5 -57t-31.5 -59.5t-48.5 -60.5t-65.5 -65q9 0 15.5 0.5t14.5 1t15.5 1t14.5 0.5h113v-26h-219v18z" />
    <glyph glyph-name="uniE60D" unicode="&#xe60d;" 
d="M512 835q-73 0 -142 -23t-124.5 -64.5t-97 -97t-64.5 -124.5t-23 -142q0 -92 36 -175.5t96 -143.5t143.5 -96t175.5 -36t175.5 36t143.5 96t96 143.5t36 175.5q0 73 -23 142t-64.5 124.5t-97 97t-124.5 64.5t-142 23zM512 -31q-113 0 -208.5 55.5t-151 151t-55.5 208.5
t55.5 208.5t151 151t208.5 55.5t208.5 -55.5t151 -151t55.5 -208.5q0 -160 -108 -279q-106 -116 -260 -133q-24 -3 -47 -3zM490 570zM265 386q0 92 28 139t79 47q25 0 44.5 -11.5t33.5 -34.5t21 -58.5t7 -81.5q0 -94 -28 -142t-78 -48q-83 0 -102 119q-5 32 -5 71zM449 386
q0 32 -3.5 58t-10 45.5t-16 32.5t-21.5 19.5t-26 6.5q-37 0 -57.5 -41.5t-20.5 -120.5q0 -81 20.5 -123t57.5 -42q36 0 56.5 42t20.5 123zM520 246l17 19q12 -12 23.5 -21t31 -16t40.5 -7q36 0 58.5 21.5t22.5 56.5q0 82 -120 82v24q29 0 50 6t33.5 17t18 24.5t5.5 30.5
q0 29 -18.5 47t-50.5 19q-5 -1 -10 -1.5t-10 -1.5t-10 -3t-9.5 -4t-9 -4.5t-8.5 -5t-8 -6t-7.5 -6.5t-6.5 -7l-17 20q21 20 44.5 31.5t52.5 11.5q28 0 50 -10.5t35 -30.5t13 -47q0 -17 -5 -32t-14 -26t-21 -19t-27 -13v-2q23 -5 40.5 -17t28.5 -32t11 -45q0 -14 -3 -26
t-8 -22t-12.5 -19t-17 -15.5t-20.5 -11t-23 -7t-26 -2.5q-26 0 -49 8t-37 18t-27 24z" />
    <glyph glyph-name="uniE60E" unicode="&#xe60e;" 
d="M490 570zM512 835q-73 0 -142 -23t-124.5 -64.5t-97 -97t-64.5 -124.5t-23 -142q0 -92 36 -175.5t96 -143.5t143.5 -96t175.5 -36t175.5 36t143.5 96t96 143.5t36 175.5q0 73 -23 142t-64.5 124.5t-97 97t-124.5 64.5t-142 23zM512 -31q-113 0 -208.5 55.5t-151 151
t-55.5 208.5t55.5 208.5t151 151t208.5 55.5t208.5 -55.5t151 -151t55.5 -208.5q0 -160 -108 -279q-106 -116 -260 -133q-24 -3 -47 -3zM265 386q0 92 28 139t79 47q25 0 44.5 -11.5t33.5 -34.5t21 -58.5t7 -81.5q0 -94 -28 -142t-78 -48q-83 0 -102 119q-5 32 -5 71z
M449 386q0 32 -3.5 58t-10 45.5t-16 32.5t-21.5 19.5t-26 6.5q-37 0 -57.5 -41.5t-20.5 -120.5q0 -81 20.5 -123t57.5 -42q36 0 56.5 42t20.5 123zM754 306h-51v-103h-28v103h-161v19l161 241h28v-235h51v-25zM675 331v134q0 26 3 60h-3q-4 -8 -8.5 -16.5t-9.5 -17
t-11 -16.5l-98 -144h127z" />
    <glyph glyph-name="uniE60F" unicode="&#xe60f;" 
d="M490 570zM512 835q-73 0 -142 -23t-124.5 -64.5t-97 -97t-64.5 -124.5t-23 -142q0 -92 36 -175.5t96 -143.5t143.5 -96t175.5 -36t175.5 36t143.5 96t96 143.5t36 175.5q0 73 -23 142t-64.5 124.5t-97 97t-124.5 64.5t-142 23zM512 -31q-113 0 -208.5 55.5t-151 151
t-55.5 208.5t55.5 208.5t151 151t208.5 55.5t208.5 -55.5t151 -151t55.5 -208.5q0 -160 -108 -279q-106 -116 -260 -133q-24 -3 -47 -3zM265 386q0 92 28 139t79 47q25 0 44.5 -11.5t33.5 -34.5t21 -58.5t7 -81.5q0 -94 -28 -142t-78 -48q-83 0 -102 119q-5 32 -5 71z
M449 386q0 32 -3.5 58t-10 45.5t-16 32.5t-21.5 19.5t-26 6.5q-37 0 -57.5 -41.5t-20.5 -120.5q0 -81 20.5 -123t57.5 -42q36 0 56.5 42t20.5 123zM519 244l16 20q41 -43 95 -43q17 0 32.5 7t27 19.5t18.5 31t7 39.5q0 29 -10.5 50t-29 32t-44.5 11q-9 0 -17.5 -1.5
t-16.5 -4.5t-14.5 -7t-15.5 -9l-19 11l13 166h166v-25h-140l-11 -123q29 18 61 18q31 0 54.5 -12t38.5 -39t15 -66q0 -38 -17 -66.5t-42.5 -42.5t-54.5 -14q-64 0 -112 48z" />
    <glyph glyph-name="uniE610" unicode="&#xe610;" 
d="M490 570zM512 835q-73 0 -142 -23t-124.5 -64.5t-97 -97t-64.5 -124.5t-23 -142q0 -92 36 -175.5t96 -143.5t143.5 -96t175.5 -36t175.5 36t143.5 96t96 143.5t36 175.5q0 73 -23 142t-64.5 124.5t-97 97t-124.5 64.5t-142 23zM512 -31q-113 0 -208.5 55.5t-151 151
t-55.5 208.5t55.5 208.5t151 151t208.5 55.5t208.5 -55.5t151 -151t55.5 -208.5q0 -160 -108 -279q-106 -116 -260 -133q-24 -3 -47 -3zM265 386q0 92 28 139t79 47q25 0 44.5 -11.5t33.5 -34.5t21 -58.5t7 -81.5q0 -94 -28 -142t-78 -48q-83 0 -102 119q-5 32 -5 71z
M449 386q0 32 -3.5 58t-10 45.5t-16 32.5t-21.5 19.5t-26 6.5q-37 0 -57.5 -41.5t-20.5 -120.5q0 -81 20.5 -123t57.5 -42q36 0 56.5 42t20.5 123zM725 519q-24 29 -60 29q-45 0 -73 -40.5t-29 -128.5q38 47 87 47q47 0 73 -29t26 -85q0 -20 -5 -38t-14.5 -32t-21.5 -24.5
t-26.5 -16t-30.5 -5.5q-54 0 -85.5 46.5t-31.5 131.5q0 53 10.5 92.5t29.5 62t41.5 33t49.5 10.5q24 0 43 -9t34 -25zM720 312q0 42 -18 66.5t-56 24.5q-45 0 -83 -52q4 -61 26 -95.5t62 -34.5q20 0 35.5 11.5t24.5 32.5t9 47z" />
    <glyph glyph-name="uniE611" unicode="&#xe611;" 
d="M490 570zM512 835q-73 0 -142 -23t-124.5 -64.5t-97 -97t-64.5 -124.5t-23 -142q0 -92 36 -175.5t96 -143.5t143.5 -96t175.5 -36t175.5 36t143.5 96t96 143.5t36 175.5q0 73 -23 142t-64.5 124.5t-97 97t-124.5 64.5t-142 23zM512 -31q-113 0 -208.5 55.5t-151 151
t-55.5 208.5t55.5 208.5t151 151t208.5 55.5t208.5 -55.5t151 -151t55.5 -208.5q0 -160 -108 -279q-106 -116 -260 -133q-24 -3 -47 -3zM265 386q0 92 28 139t79 47q25 0 44.5 -11.5t33.5 -34.5t21 -58.5t7 -81.5q0 -94 -28 -142t-78 -48q-83 0 -102 119q-5 32 -5 71z
M449 386q0 32 -3.5 58t-10 45.5t-16 32.5t-21.5 19.5t-26 6.5q-37 0 -57.5 -41.5t-20.5 -120.5q0 -81 20.5 -123t57.5 -42q36 0 56.5 42t20.5 123zM713 541h-184v25h219v-17q-61 -81 -83 -156t-27 -190h-31q3 74 14 130.5t33 106.5t59 101z" />
    <glyph glyph-name="uniE612" unicode="&#xe612;" 
d="M490 570zM512 835q-73 0 -142 -23t-124.5 -64.5t-97 -97t-64.5 -124.5t-23 -142q0 -92 36 -175.5t96 -143.5t143.5 -96t175.5 -36t175.5 36t143.5 96t96 143.5t36 175.5q0 73 -23 142t-64.5 124.5t-97 97t-124.5 64.5t-142 23zM512 -31q-113 0 -208.5 55.5t-151 151
t-55.5 208.5t55.5 208.5t151 151t208.5 55.5t208.5 -55.5t151 -151t55.5 -208.5q0 -160 -108 -279q-106 -116 -260 -133q-24 -3 -47 -3zM265 386q0 92 28 139t79 47q25 0 44.5 -11.5t33.5 -34.5t21 -58.5t7 -81.5q0 -94 -28 -142t-78 -48q-83 0 -102 119q-5 32 -5 71z
M449 386q0 32 -3.5 58t-10 45.5t-16 32.5t-21.5 19.5t-26 6.5q-37 0 -57.5 -41.5t-20.5 -120.5q0 -81 20.5 -123t57.5 -42q36 0 56.5 42t20.5 123zM527 293q0 23 11 44.5t25.5 35t33.5 24.5v2q-50 33 -50 82q0 20 7 36.5t19.5 28.5t30 18.5t36.5 6.5q30 0 52 -12.5t33.5 -34
t11.5 -48.5t-15.5 -51t-34.5 -39v-3q62 -37 62 -95q0 -19 -8 -36t-22 -29t-34.5 -19.5t-44.5 -7.5q-32 0 -58 12.5t-40.5 35t-14.5 49.5zM720 289q0 20 -8 35t-26 26.5t-31.5 18t-40.5 17.5q-59 -36 -59 -92q0 -32 24 -53t61 -21q14 0 26.5 3.5t22 9.5t16.5 14.5t11 19
t4 22.5zM710 475q0 20 -8 36t-24.5 26.5t-37.5 10.5q-29 0 -47 -19t-18 -48q0 -33 23 -51.5t67 -35.5q45 36 45 81z" />
    <glyph glyph-name="uniE613" unicode="&#xe613;" 
d="M490 570zM512 835q-73 0 -142 -23t-124.5 -64.5t-97 -97t-64.5 -124.5t-23 -142q0 -92 36 -175.5t96 -143.5t143.5 -96t175.5 -36t175.5 36t143.5 96t96 143.5t36 175.5q0 73 -23 142t-64.5 124.5t-97 97t-124.5 64.5t-142 23zM512 -31q-113 0 -208.5 55.5t-151 151
t-55.5 208.5t55.5 208.5t151 151t208.5 55.5t208.5 -55.5t151 -151t55.5 -208.5q0 -160 -108 -279q-106 -116 -260 -133q-24 -3 -47 -3zM265 386q0 92 28 139t79 47q25 0 44.5 -11.5t33.5 -34.5t21 -58.5t7 -81.5q0 -94 -28 -142t-78 -48q-83 0 -102 119q-5 32 -5 71z
M449 386q0 32 -3.5 58t-10 45.5t-16 32.5t-21.5 19.5t-26 6.5q-37 0 -57.5 -41.5t-20.5 -120.5q0 -81 20.5 -123t57.5 -42q36 0 56.5 42t20.5 123zM553 250q5 -6 10.5 -10.5t11.5 -8t12.5 -6t13.5 -3.5t15 -1q11 0 21 3t20 9t18 15t15 23t12.5 31t8.5 39.5t4 49.5
q-40 -49 -89 -49q-31 0 -52.5 13t-33.5 39t-12 62q0 51 28.5 83.5t69.5 32.5q26 0 47.5 -11t37 -32t24 -53t8.5 -72q0 -45 -7 -80.5t-19 -59t-28.5 -39t-34.5 -22.5t-39 -7q-47 0 -80 35zM714 419q-1 40 -11.5 68.5t-30 45t-47.5 16.5q-9 0 -18 -3.5t-16.5 -9t-14 -14
t-11 -18.5t-6.5 -22.5t-2 -25.5q0 -27 7.5 -46.5t24 -31.5t40.5 -12q47 0 85 53z" />
    <glyph glyph-name="uniE614" unicode="&#xe614;" 
d="M490 570zM512 835q-73 0 -142 -23t-124.5 -64.5t-97 -97t-64.5 -124.5t-23 -142q0 -92 36 -175.5t96 -143.5t143.5 -96t175.5 -36t175.5 36t143.5 96t96 143.5t36 175.5q0 73 -23 142t-64.5 124.5t-97 97t-124.5 64.5t-142 23zM512 -31q-113 0 -208.5 55.5t-151 151
t-55.5 208.5t55.5 208.5t151 151t208.5 55.5t208.5 -55.5t151 -151t55.5 -208.5q0 -160 -108 -279q-106 -116 -260 -133q-24 -3 -47 -3zM284 228h82v296h-63v19q41 7 69 23h24v-338h75v-25h-187v25zM531 386q0 62 13 104t37 62t57 20q51 0 79 -47t28 -139q0 -94 -28 -142
t-79 -48q-83 0 -102 119q-5 32 -5 71zM716 386q0 26 -2.5 49t-7 41t-11.5 31.5t-15.5 22.5t-19 13.5t-22.5 4.5q-36 0 -57 -41.5t-21 -120.5q0 -81 21 -123t57 -42t57 42t21 123z" />
    <glyph glyph-name="uniE616" unicode="&#xe616;" 
d="M563 384l291 282q11 10 11 24.5t-11 24.5q-5 5 -12 7.5t-13.5 2.5t-13.5 -2.5t-12 -7.5l-291 -281l-291 281q-7 7 -16 9.5t-18.5 0t-16.5 -9.5q-11 -10 -11 -24.5t11 -24.5l291 -282l-291 -282q-11 -10 -11 -24.5t11 -24.5q4 -3 8 -5.5t8.5 -3.5t9 -1t9 1t9 3.5t7.5 5.5
l291 281l291 -281q7 -7 16 -9.5t18.5 0t16.5 9.5q11 10 11 24.5t-11 24.5zM563 384z" />
    <glyph glyph-name="uniE617" unicode="&#xe617;" 
d="M593 168q-4 0 -8 1.5t-7.5 4t-6 6t-4 7.5t-1.5 8v299q0 11 8 19t19.5 8t19.5 -8t8 -19v-299q0 -11 -8 -19t-20 -8zM431 168q-12 0 -20 8t-8 19v299q0 11 8 19t19.5 8t19.5 -8t8 -19v-299q0 -11 -8 -19t-19 -8zM853 620h-131v52q0 33 -23 56t-55 23h-263
q-21 0 -39.5 -10.5t-29 -29t-10.5 -39.5v-52h-131q-10 0 -18 -8t-8 -18.5t8 -18.5t18 -8h682q10 0 18 8t8 18.5t-8 18.5t-18 8zM357 672q0 7 3.5 13t9.5 9.5t13 3.5h259q7 0 12.5 -3.5t9 -9.5t3.5 -13v-52h-310v52zM695 17h-366q-33 0 -56 23t-23 56v393q0 11 8.5 18.5
t19.5 7.5t19 -7.5t8 -18.5v-391q0 -7 3.5 -13t9.5 -9.5t13 -3.5h362q11 0 18.5 8t7.5 18v391q0 5 2.5 10t6 8t8.5 5t11 2q11 0 19 -7t8 -18v-393q0 -45 -39 -68q-19 -10 -40 -11zM695 17z" />
    <glyph glyph-name="uniE618" unicode="&#xe618;" 
d="M771 643q-53 53 -121.5 80.5t-137.5 27.5t-137.5 -27.5t-121.5 -80.5q-71 -70 -96 -164.5t0 -189t96 -164.5q53 -53 121.5 -80.5t137.5 -27.5t137.5 27.5t121.5 80.5t80.5 121.5t27.5 137.5t-27.5 137.5t-80.5 121.5zM700 203q-7 -7 -17 -7t-17 7l-153 147l-154 -147
q-5 -5 -11 -6.5t-12.5 0t-11.5 6.5q-3 3 -5 7.5t-2 9t2 9t5 7.5l154 148l-154 148q-5 4 -6.5 10t0 12.5t6.5 10.5q7 7 17 7t17 -7l155 -148l152 147q8 7 18 7t17 -7t7 -17t-7 -17l-153 -146l153 -147q7 -7 7 -17t-7 -17z" />
    <glyph glyph-name="uniE619" unicode="&#xe619;" 
d="M137 538q-6 6 -8 14.5t0 16.5t8 14q10 9 23 9t22 -9l328 -330l332 329q6 6 14 8t16.5 0t14.5 -9q9 -9 9 -22.5t-9 -22.5l-353 -350h-1q-1 0 -1 -1q-2 -2 -4 -3.5t-4.5 -2.5t-4.5 -2t-5 -1h-5q-6 0 -12 2t-10 7z" />
    <glyph glyph-name="uniE61A" unicode="&#xe61a;" 
d="M735 536l-103 103l51 52q13 12 31 12t31 -12l41 -42q9 -8 12 -19.5t0 -22.5t-12 -20zM435 237l-103 103l281 278l103 -103zM250 152l62 168l103 -103zM773 117q11 0 18.5 -7.5t7.5 -18.5t-7.5 -18.5t-18.5 -7.5h-522q-11 0 -18.5 7.5t-7.5 18.5q0 5 2 10t5.5 8.5t8.5 5.5
t10 2h522zM773 117z" />
    <glyph glyph-name="uniE61B" unicode="&#xe61b;" 
d="M490 570zM512 835q-73 0 -142 -23t-124.5 -64.5t-97 -97t-64.5 -124.5t-23 -142q0 -92 36 -175.5t96 -143.5t143.5 -96t175.5 -36t175.5 36t143.5 96t96 143.5t36 175.5q0 73 -23 142t-64.5 124.5t-97 97t-124.5 64.5t-142 23zM512 -31q-113 0 -208.5 55.5t-151 151
t-55.5 208.5t55.5 208.5t151 151t208.5 55.5t208.5 -55.5t151 -151t55.5 -208.5q0 -160 -108 -279q-106 -116 -260 -133q-24 -3 -47 -3zM284 228h82v296h-63v19q41 7 69 23h24v-338h75v-25h-187v25zM551 228h82v296h-63v19q41 7 69 23h23v-338h76v-25h-187v25z" />
    <glyph glyph-name="uniE61C" unicode="&#xe61c;" 
d="M490 570zM512 835q-73 0 -142 -23t-124.5 -64.5t-97 -97t-64.5 -124.5t-23 -142q0 -92 36 -175.5t96 -143.5t143.5 -96t175.5 -36t175.5 36t143.5 96t96 143.5t36 175.5q0 73 -23 142t-64.5 124.5t-97 97t-124.5 64.5t-142 23zM512 -31q-113 0 -208.5 55.5t-151 151
t-55.5 208.5t55.5 208.5t151 151t208.5 55.5t208.5 -55.5t151 -151t55.5 -208.5q0 -160 -108 -279q-106 -116 -260 -133q-24 -3 -47 -3zM284 228h82v296h-63v19q41 7 69 23h24v-338h75v-25h-187v25zM527 221q91 78 131.5 137t40.5 109q0 36 -18.5 58.5t-55.5 22.5
q-44 0 -81 -45l-18 17q22 25 46.5 38.5t55.5 13.5q47 0 74 -28t27 -76q0 -28 -10.5 -57t-31.5 -59.5t-48.5 -60.5t-65.5 -65q9 0 15.5 0.5t14.5 1t15.5 1t14.5 0.5h113v-26h-219v18z" />
    <glyph glyph-name="uniE61D" unicode="&#xe61d;" 
d="M512 835q-73 0 -142 -23t-124.5 -64.5t-97 -97t-64.5 -124.5t-23 -142q0 -92 36 -175.5t96 -143.5t143.5 -96t175.5 -36t175.5 36t143.5 96t96 143.5t36 175.5q0 73 -23 142t-64.5 124.5t-97 97t-124.5 64.5t-142 23zM512 -31q-113 0 -208.5 55.5t-151 151t-55.5 208.5
t55.5 208.5t151 151t208.5 55.5t208.5 -55.5t151 -151t55.5 -208.5q0 -160 -108 -279q-106 -116 -260 -133q-24 -3 -47 -3zM490 570zM284 228h82v296h-63v19q41 7 69 23h24v-338h75v-25h-187v25zM520 246l17 19q12 -12 23.5 -21t31 -16t40.5 -7q36 0 58.5 21.5t22.5 56.5
q0 82 -120 82v24q29 0 50 6t33.5 17t18 24.5t5.5 30.5q0 29 -18.5 47t-50.5 19q-5 -1 -10 -1.5t-10 -1.5t-10 -3t-9.5 -4t-9 -4.5t-8.5 -5t-8 -6t-7.5 -6.5t-6.5 -7l-17 20q21 20 44.5 31.5t52.5 11.5q28 0 50 -10.5t35 -30.5t13 -47q0 -17 -5 -32t-14 -26t-21 -19t-27 -13
v-2q23 -5 40.5 -17t28.5 -32t11 -45q0 -14 -3 -26t-8 -22t-12.5 -19t-17 -15.5t-20.5 -11t-23 -7t-26 -2.5q-26 0 -49 8t-37 18t-27 24z" />
    <glyph glyph-name="uniE61E" unicode="&#xe61e;" 
d="M490 570zM512 835q-73 0 -142 -23t-124.5 -64.5t-97 -97t-64.5 -124.5t-23 -142q0 -92 36 -175.5t96 -143.5t143.5 -96t175.5 -36t175.5 36t143.5 96t96 143.5t36 175.5q0 73 -23 142t-64.5 124.5t-97 97t-124.5 64.5t-142 23zM512 -31q-113 0 -208.5 55.5t-151 151
t-55.5 208.5t55.5 208.5t151 151t208.5 55.5t208.5 -55.5t151 -151t55.5 -208.5q0 -160 -108 -279q-106 -116 -260 -133q-24 -3 -47 -3zM284 228h82v296h-63v19q41 7 69 23h24v-338h75v-25h-187v25zM519 244l16 20q41 -43 95 -43q17 0 32.5 7t27 19.5t18.5 31t7 39.5
q0 29 -10.5 50t-29 32t-44.5 11q-9 0 -17.5 -1.5t-16.5 -4.5t-14.5 -7t-15.5 -9l-19 11l13 166h166v-25h-140l-11 -123q29 18 61 18q31 0 54.5 -12t38.5 -39t15 -66q0 -38 -17 -66.5t-42.5 -42.5t-54.5 -14q-64 0 -112 48z" />
    <glyph glyph-name="uniE61F" unicode="&#xe61f;" 
d="M512 835q-73 0 -142 -23t-124.5 -64.5t-97 -97t-64.5 -124.5t-23 -142q0 -92 36 -175.5t96 -143.5t143.5 -96t175.5 -36t175.5 36t143.5 96t96 143.5t36 175.5q0 73 -23 142t-64.5 124.5t-97 97t-124.5 64.5t-142 23zM512 -31q-113 0 -208.5 55.5t-151 151t-55.5 208.5
t55.5 208.5t151 151t208.5 55.5t208.5 -55.5t151 -151t55.5 -208.5q0 -160 -108 -279q-106 -116 -260 -133q-24 -3 -47 -3zM490 570zM284 228h82v296h-63v19q41 7 69 23h24v-338h75v-25h-187v25zM725 519q-24 29 -60 29q-45 0 -73 -40.5t-29 -128.5q38 47 87 47q47 0 73 -29
t26 -85q0 -20 -5 -38t-14.5 -32t-21.5 -24.5t-26.5 -16t-30.5 -5.5q-54 0 -85.5 46.5t-31.5 131.5q0 53 10.5 92.5t29.5 62t41.5 33t49.5 10.5q24 0 43 -9t34 -25zM720 312q0 42 -18 66.5t-56 24.5q-45 0 -83 -52q4 -61 26 -95.5t62 -34.5q20 0 35.5 11.5t24.5 32.5t9 47z
" />
    <glyph glyph-name="uniE620" unicode="&#xe620;" 
d="M490 570zM512 835q-73 0 -142 -23t-124.5 -64.5t-97 -97t-64.5 -124.5t-23 -142q0 -92 36 -175.5t96 -143.5t143.5 -96t175.5 -36t175.5 36t143.5 96t96 143.5t36 175.5q0 73 -23 142t-64.5 124.5t-97 97t-124.5 64.5t-142 23zM512 -31q-113 0 -208.5 55.5t-151 151
t-55.5 208.5t55.5 208.5t151 151t208.5 55.5t208.5 -55.5t151 -151t55.5 -208.5q0 -160 -108 -279q-106 -116 -260 -133q-24 -3 -47 -3zM284 228h82v296h-63v19q41 7 69 23h24v-338h75v-25h-187v25zM713 541h-184v25h219v-17q-61 -81 -83 -156t-27 -190h-31q3 74 14 130.5
t33 106.5t59 101z" />
    <glyph glyph-name="uniE621" unicode="&#xe621;" 
d="M490 570zM512 835q-73 0 -142 -23t-124.5 -64.5t-97 -97t-64.5 -124.5t-23 -142q0 -92 36 -175.5t96 -143.5t143.5 -96t175.5 -36t175.5 36t143.5 96t96 143.5t36 175.5q0 73 -23 142t-64.5 124.5t-97 97t-124.5 64.5t-142 23zM512 -31q-113 0 -208.5 55.5t-151 151
t-55.5 208.5t55.5 208.5t151 151t208.5 55.5t208.5 -55.5t151 -151t55.5 -208.5q0 -160 -108 -279q-106 -116 -260 -133q-24 -3 -47 -3zM284 228h82v296h-63v19q41 7 69 23h24v-338h75v-25h-187v25zM527 293q0 23 11 44.5t25.5 35t33.5 24.5v2q-50 33 -50 82q0 20 7 36.5
t19.5 28.5t30 18.5t36.5 6.5q30 0 52 -12.5t33.5 -34t11.5 -48.5t-15.5 -51t-34.5 -39v-3q62 -37 62 -95q0 -19 -8 -36t-22 -29t-34.5 -19.5t-44.5 -7.5q-32 0 -58 12.5t-40.5 35t-14.5 49.5zM720 289q0 20 -8 35t-26 26.5t-31.5 18t-40.5 17.5q-59 -36 -59 -92
q0 -32 24 -53t61 -21q14 0 26.5 3.5t22 9.5t16.5 14.5t11 19t4 22.5zM710 475q0 20 -8 36t-24.5 26.5t-37.5 10.5q-29 0 -47 -19t-18 -48q0 -33 23 -51.5t67 -35.5q45 36 45 81z" />
    <glyph glyph-name="uniE622" unicode="&#xe622;" horiz-adv-x="1329" 
d="M454 -107l8 -8l867 867l-145 144l-743 -743l-297 297l-144 -145l433 -433z" />
    <glyph glyph-name="uniE624" unicode="&#xe624;" 
d="M440 669q-61 0 -113 -30t-82 -82t-30 -114q0 -36 11.5 -70.5t32 -62.5t48.5 -48.5t62 -32t71 -11.5q94 0 160 66t66 159q0 46 -18 88t-48 72t-72 48t-88 18zM440 278q-69 0 -117.5 48t-48.5 117.5t48.5 117.5t117.5 48t117.5 -48t48.5 -118q0 -68 -49 -116.5t-117 -48.5z
M778 108q-8 -9 -19 -11.5t-22.5 0t-19.5 11.5l-182 182l61 61l182 -182q13 -12 13 -30.5t-13 -30.5z" />
    <glyph glyph-name="uniE625" unicode="&#xe625;" 
d="M858 530.5q-30 68.5 -80.5 119t-119 80.5t-146.5 30t-146.5 -30t-119 -80.5t-80.5 -119t-30 -146.5t30 -146.5t80.5 -119t119 -80.5t146.5 -30t146.5 30t119 80.5t80.5 119t30 146.5t-30 146.5zM687 472l-210 -212v-1q-1 -1 -6 -4h-1q-1 -1 -2 -1q-1 -1 -2.5 -1.5
t-3.5 -0.5h-3q-5 0 -10 2l-2 1l-1 1l-6 3v1l-103 106q-3 3 -5 6.5t-2.5 7.5t0 8t2.5 8t5 7q5 5 12 6.5t13.5 -0.5t11.5 -7l85 -87l191 193q7 8 18 8t19 -7.5t8 -18.5t-8 -18z" />
    <glyph glyph-name="uniE626" unicode="&#xe626;" 
d="M894 575l-382 -382l-382 382h764zM894 575z" />
    <glyph glyph-name="uniE627" unicode="&#xe627;" 
d="M894 193h-764l382 382zM894 193z" />
    <glyph glyph-name="uniE628" unicode="&#xe628;" 
d="M512 749q-74 0 -141.5 -29t-116.5 -78t-78 -116.5t-29 -141.5q0 -99 49 -183t133 -133t183 -49t183 49t133 133t49 183t-49 183t-133 133t-183 49zM512 65q-132 0 -225.5 93.5t-93.5 225.5t93.5 225.5t225.5 93.5t225.5 -93.5t93.5 -225.5t-93.5 -225.5t-225.5 -93.5z
" />
    <glyph glyph-name="uniE629" unicode="&#xe629;" 
d="M512 749q-74 0 -141.5 -29t-116.5 -78t-78 -116.5t-29 -141.5q0 -99 49 -183t133 -133t183 -49t183 49t133 133t49 183t-49 183t-133 133t-183 49zM512 65q-132 0 -225.5 93.5t-93.5 225.5t93.5 225.5t225.5 93.5t225.5 -93.5t93.5 -225.5t-93.5 -225.5t-225.5 -93.5z
M512 384zM319 384q0 80 56.5 136.5t136.5 56.5t136.5 -56.5t56.5 -136.5t-56.5 -136.5t-136.5 -56.5t-136.5 56.5t-56.5 136.5z" />
    <glyph glyph-name="uniE62A" unicode="&#xe62a;" 
d="M490 570zM512 835q-73 0 -142 -23t-124.5 -64.5t-97 -97t-64.5 -124.5t-23 -142q0 -92 36 -175.5t96 -143.5t143.5 -96t175.5 -36t175.5 36t143.5 96t96 143.5t36 175.5q0 73 -23 142t-64.5 124.5t-97 97t-124.5 64.5t-142 23zM512 -31q-113 0 -208.5 55.5t-151 151
t-55.5 208.5t55.5 208.5t151 151t208.5 55.5t208.5 -55.5t151 -151t55.5 -208.5q0 -160 -108 -279q-106 -116 -260 -133q-24 -3 -47 -3zM261 221q90 78 131 137t41 109q0 36 -19 58.5t-56 22.5q-44 0 -80 -45l-19 17q23 25 47 38.5t55 13.5q47 0 74 -28t27 -76
q0 -54 -39 -112t-117 -130q40 3 60 3h113v-26h-218v18zM531 386q0 62 13 104t37 62t57 20q51 0 79 -47t28 -139q0 -94 -28 -142t-79 -48q-83 0 -102 119q-5 32 -5 71zM716 386q0 26 -2.5 49t-7 41t-11.5 31.5t-15.5 22.5t-19 13.5t-22.5 4.5q-36 0 -57 -41.5t-21 -120.5
q0 -81 21 -123t57 -42t57 42t21 123z" />
    <glyph glyph-name="uniE62B" unicode="&#xe62b;" 
d="M490 570zM512 835q-73 0 -142 -23t-124.5 -64.5t-97 -97t-64.5 -124.5t-23 -142q0 -92 36 -175.5t96 -143.5t143.5 -96t175.5 -36t175.5 36t143.5 96t96 143.5t36 175.5q0 73 -23 142t-64.5 124.5t-97 97t-124.5 64.5t-142 23zM512 -31q-113 0 -208.5 55.5t-151 151
t-55.5 208.5t55.5 208.5t151 151t208.5 55.5t208.5 -55.5t151 -151t55.5 -208.5q0 -160 -108 -279q-106 -116 -260 -133q-24 -3 -47 -3zM261 221q90 78 131 137t41 109q0 36 -19 58.5t-56 22.5q-44 0 -80 -45l-19 17q23 25 47 38.5t55 13.5q47 0 74 -28t27 -76
q0 -54 -39 -112t-117 -130q40 3 60 3h113v-26h-218v18zM551 228h82v296h-63v19q41 7 69 23h23v-338h76v-25h-187v25z" />
    <glyph glyph-name="uniE62C" unicode="&#xe62c;" 
d="M490 570zM512 835q-73 0 -142 -23t-124.5 -64.5t-97 -97t-64.5 -124.5t-23 -142q0 -92 36 -175.5t96 -143.5t143.5 -96t175.5 -36t175.5 36t143.5 96t96 143.5t36 175.5q0 73 -23 142t-64.5 124.5t-97 97t-124.5 64.5t-142 23zM512 -31q-113 0 -208.5 55.5t-151 151
t-55.5 208.5t55.5 208.5t151 151t208.5 55.5t208.5 -55.5t151 -151t55.5 -208.5q0 -160 -108 -279q-106 -116 -260 -133q-24 -3 -47 -3zM261 221q90 78 131 137t41 109q0 36 -19 58.5t-56 22.5q-44 0 -80 -45l-19 17q23 25 47 38.5t55 13.5q47 0 74 -28t27 -76
q0 -54 -39 -112t-117 -130q40 3 60 3h113v-26h-218v18zM527 221q91 78 131.5 137t40.5 109q0 36 -18.5 58.5t-55.5 22.5q-44 0 -81 -45l-18 17q22 25 46.5 38.5t55.5 13.5q47 0 74 -28t27 -76q0 -28 -10.5 -57t-31.5 -59.5t-48.5 -60.5t-65.5 -65q9 0 15.5 0.5t14.5 1
t15.5 1t14.5 0.5h113v-26h-219v18z" />
    <glyph glyph-name="uniE62D" unicode="&#xe62d;" 
d="M490 570zM512 835q-73 0 -142 -23t-124.5 -64.5t-97 -97t-64.5 -124.5t-23 -142q0 -92 36 -175.5t96 -143.5t143.5 -96t175.5 -36t175.5 36t143.5 96t96 143.5t36 175.5q0 73 -23 142t-64.5 124.5t-97 97t-124.5 64.5t-142 23zM512 -31q-113 0 -208.5 55.5t-151 151
t-55.5 208.5t55.5 208.5t151 151t208.5 55.5t208.5 -55.5t151 -151t55.5 -208.5q0 -160 -108 -279q-106 -116 -260 -133q-24 -3 -47 -3zM261 221q90 78 131 137t41 109q0 36 -19 58.5t-56 22.5q-44 0 -80 -45l-19 17q23 25 47 38.5t55 13.5q47 0 74 -28t27 -76
q0 -54 -39 -112t-117 -130q40 3 60 3h113v-26h-218v18zM520 246l17 19q12 -12 23.5 -21t31 -16t40.5 -7q36 0 58.5 21.5t22.5 56.5q0 82 -120 82v24q29 0 50 6t33.5 17t18 24.5t5.5 30.5q0 29 -18.5 47t-50.5 19q-5 -1 -10 -1.5t-10 -1.5t-10 -3t-9.5 -4t-9 -4.5t-8.5 -5
t-8 -6t-7.5 -6.5t-6.5 -7l-17 20q21 20 44.5 31.5t52.5 11.5q28 0 50 -10.5t35 -30.5t13 -47q0 -17 -5 -32t-14 -26t-21 -19t-27 -13v-2q23 -5 40.5 -17t28.5 -32t11 -45q0 -14 -3 -26t-8 -22t-12.5 -19t-17 -15.5t-20.5 -11t-23 -7t-26 -2.5q-26 0 -49 8t-37 18t-27 24z
" />
    <glyph glyph-name="uniE62E" unicode="&#xe62e;" 
d="M490 570zM512 835q-73 0 -142 -23t-124.5 -64.5t-97 -97t-64.5 -124.5t-23 -142q0 -92 36 -175.5t96 -143.5t143.5 -96t175.5 -36t175.5 36t143.5 96t96 143.5t36 175.5q0 73 -23 142t-64.5 124.5t-97 97t-124.5 64.5t-142 23zM512 -31q-113 0 -208.5 55.5t-151 151
t-55.5 208.5t55.5 208.5t151 151t208.5 55.5t208.5 -55.5t151 -151t55.5 -208.5q0 -160 -108 -279q-106 -116 -260 -133q-24 -3 -47 -3zM261 221q90 78 131 137t41 109q0 36 -19 58.5t-56 22.5q-44 0 -80 -45l-19 17q23 25 47 38.5t55 13.5q47 0 74 -28t27 -76
q0 -54 -39 -112t-117 -130q40 3 60 3h113v-26h-218v18zM754 306h-51v-103h-28v103h-161v19l161 241h28v-235h51v-25zM675 331v134q0 26 3 60h-3q-4 -8 -8.5 -16.5t-9.5 -17t-11 -16.5l-98 -144h127z" />
    <glyph glyph-name="uniE62F" unicode="&#xe62f;" 
d="M490 570zM512 835q-73 0 -142 -23t-124.5 -64.5t-97 -97t-64.5 -124.5t-23 -142q0 -92 36 -175.5t96 -143.5t143.5 -96t175.5 -36t175.5 36t143.5 96t96 143.5t36 175.5q0 73 -23 142t-64.5 124.5t-97 97t-124.5 64.5t-142 23zM512 -31q-113 0 -208.5 55.5t-151 151
t-55.5 208.5t55.5 208.5t151 151t208.5 55.5t208.5 -55.5t151 -151t55.5 -208.5q0 -160 -108 -279q-106 -116 -260 -133q-24 -3 -47 -3zM261 221q90 78 131 137t41 109q0 36 -19 58.5t-56 22.5q-44 0 -80 -45l-19 17q23 25 47 38.5t55 13.5q47 0 74 -28t27 -76
q0 -54 -39 -112t-117 -130q40 3 60 3h113v-26h-218v18zM519 244l16 20q41 -43 95 -43q17 0 32.5 7t27 19.5t18.5 31t7 39.5q0 29 -10.5 50t-29 32t-44.5 11q-9 0 -17.5 -1.5t-16.5 -4.5t-14.5 -7t-15.5 -9l-19 11l13 166h166v-25h-140l-11 -123q29 18 61 18q31 0 54.5 -12
t38.5 -39t15 -66q0 -38 -17 -66.5t-42.5 -42.5t-54.5 -14q-64 0 -112 48z" />
    <glyph glyph-name="uniE630" unicode="&#xe630;" 
d="M490 570zM512 835q-73 0 -142 -23t-124.5 -64.5t-97 -97t-64.5 -124.5t-23 -142q0 -92 36 -175.5t96 -143.5t143.5 -96t175.5 -36t175.5 36t143.5 96t96 143.5t36 175.5q0 73 -23 142t-64.5 124.5t-97 97t-124.5 64.5t-142 23zM512 -31q-113 0 -208.5 55.5t-151 151
t-55.5 208.5t55.5 208.5t151 151t208.5 55.5t208.5 -55.5t151 -151t55.5 -208.5q0 -160 -108 -279q-106 -116 -260 -133q-24 -3 -47 -3zM254 246l16 19q12 -12 24 -21t31 -16t41 -7q35 0 58 21.5t23 56.5q0 82 -121 82v24q15 0 27.5 1.5t23 4.5t18.5 7t14.5 9.5t11 11.5
t7.5 13t4.5 14.5t1.5 16.5q0 19 -8.5 34t-24 23t-36.5 9q-5 -1 -9.5 -1.5t-9.5 -1.5l-8 -2q-5 -1 -9 -3l-8 -4q-4 -2 -8 -5l-8 -4q-4 -3 -7.5 -6t-6.5 -6l-6 -6l-17 20q10 9 20 16.5t22 13.5t26 9.5t29 3.5q28 0 50 -10.5t35 -30.5t13 -47q0 -23 -8.5 -41.5t-23 -30
t-34.5 -18.5v-2q34 -8 56.5 -32.5t22.5 -61.5q0 -47 -31 -75t-78 -28q-27 0 -49.5 8t-36.5 18t-27 24zM531 386q0 62 13 104t37 62t57 20q51 0 79 -47t28 -139q0 -94 -28 -142t-79 -48q-83 0 -102 119q-5 32 -5 71zM716 386q0 26 -2.5 49t-7 41t-11.5 31.5t-15.5 22.5
t-19 13.5t-22.5 4.5q-36 0 -57 -41.5t-21 -120.5q0 -81 21 -123t57 -42t57 42t21 123z" />
    <glyph glyph-name="uniE631" unicode="&#xe631;" 
d="M490 570zM512 835q-73 0 -142 -23t-124.5 -64.5t-97 -97t-64.5 -124.5t-23 -142q0 -92 36 -175.5t96 -143.5t143.5 -96t175.5 -36t175.5 36t143.5 96t96 143.5t36 175.5q0 73 -23 142t-64.5 124.5t-97 97t-124.5 64.5t-142 23zM512 -31q-113 0 -208.5 55.5t-151 151
t-55.5 208.5t55.5 208.5t151 151t208.5 55.5t208.5 -55.5t151 -151t55.5 -208.5q0 -160 -108 -279q-106 -116 -260 -133q-24 -3 -47 -3zM254 246l16 19q12 -12 24 -21t31 -16t41 -7q35 0 58 21.5t23 56.5q0 82 -121 82v24q15 0 27.5 1.5t23 4.5t18.5 7t14.5 9.5t11 11.5
t7.5 13t4.5 14.5t1.5 16.5q0 19 -8.5 34t-24 23t-36.5 9q-5 -1 -9.5 -1.5t-9.5 -1.5l-8 -2q-5 -1 -9 -3l-8 -4q-4 -2 -8 -5l-8 -4q-4 -3 -7.5 -6t-6.5 -6l-6 -6l-17 20q10 9 20 16.5t22 13.5t26 9.5t29 3.5q28 0 50 -10.5t35 -30.5t13 -47q0 -23 -8.5 -41.5t-23 -30
t-34.5 -18.5v-2q34 -8 56.5 -32.5t22.5 -61.5q0 -47 -31 -75t-78 -28q-27 0 -49.5 8t-36.5 18t-27 24zM551 228h82v296h-63v19q41 7 69 23h23v-338h76v-25h-187v25z" />
    <glyph glyph-name="uniE632" unicode="&#xe632;" 
d="M490 570zM512 835q-73 0 -142 -23t-124.5 -64.5t-97 -97t-64.5 -124.5t-23 -142q0 -92 36 -175.5t96 -143.5t143.5 -96t175.5 -36t175.5 36t143.5 96t96 143.5t36 175.5q0 73 -23 142t-64.5 124.5t-97 97t-124.5 64.5t-142 23zM512 -31q-113 0 -208.5 55.5t-151 151
t-55.5 208.5t55.5 208.5t151 151t208.5 55.5t208.5 -55.5t151 -151t55.5 -208.5q0 -160 -108 -279q-106 -116 -260 -133q-24 -3 -47 -3zM284 228h82v296h-63v19q41 7 69 23h24v-338h75v-25h-187v25zM754 306h-51v-103h-28v103h-161v19l161 241h28v-235h51v-25zM675 331v134
q0 26 3 60h-3q-4 -8 -8.5 -16.5t-9.5 -17t-11 -16.5l-98 -144h127z" />
    <glyph glyph-name="uniE634" unicode="&#xe634;" 
d="M490 570zM512 835q-73 0 -142 -23t-124.5 -64.5t-97 -97t-64.5 -124.5t-23 -142q0 -92 36 -175.5t96 -143.5t143.5 -96t175.5 -36t175.5 36t143.5 96t96 143.5t36 175.5q0 73 -23 142t-64.5 124.5t-97 97t-124.5 64.5t-142 23zM512 -31q-113 0 -208.5 55.5t-151 151
t-55.5 208.5t55.5 208.5t151 151t208.5 55.5t208.5 -55.5t151 -151t55.5 -208.5q0 -160 -108 -279q-106 -116 -260 -133q-24 -3 -47 -3zM284 228h82v296h-63v19q41 7 69 23h24v-338h75v-25h-187v25zM551 228h82v296h-63v19q41 7 69 23h23v-338h76v-25h-187v25z" />
    <glyph glyph-name="uniE635" unicode="&#xe635;" 
d="M490 570zM512 835q-73 0 -142 -23t-124.5 -64.5t-97 -97t-64.5 -124.5t-23 -142q0 -92 36 -175.5t96 -143.5t143.5 -96t175.5 -36t175.5 36t143.5 96t96 143.5t36 175.5q0 73 -23 142t-64.5 124.5t-97 97t-124.5 64.5t-142 23zM512 -31q-113 0 -208.5 55.5t-151 151
t-55.5 208.5t55.5 208.5t151 151t208.5 55.5t208.5 -55.5t151 -151t55.5 -208.5q0 -160 -108 -279q-106 -116 -260 -133q-24 -3 -47 -3zM284 228h82v296h-63v19q41 7 69 23h24v-338h75v-25h-187v25zM527 221q91 78 131.5 137t40.5 109q0 36 -18.5 58.5t-55.5 22.5
q-44 0 -81 -45l-18 17q22 25 46.5 38.5t55.5 13.5q47 0 74 -28t27 -76q0 -28 -10.5 -57t-31.5 -59.5t-48.5 -60.5t-65.5 -65q9 0 15.5 0.5t14.5 1t15.5 1t14.5 0.5h113v-26h-219v18z" />
    <glyph glyph-name="uniE636" unicode="&#xe636;" 
d="M512 835q-73 0 -142 -23t-124.5 -64.5t-97 -97t-64.5 -124.5t-23 -142q0 -92 36 -175.5t96 -143.5t143.5 -96t175.5 -36t175.5 36t143.5 96t96 143.5t36 175.5q0 73 -23 142t-64.5 124.5t-97 97t-124.5 64.5t-142 23zM512 -31q-113 0 -208.5 55.5t-151 151t-55.5 208.5
t55.5 208.5t151 151t208.5 55.5t208.5 -55.5t151 -151t55.5 -208.5q0 -160 -108 -279q-106 -116 -260 -133q-24 -3 -47 -3zM490 570zM284 228h82v296h-63v19q41 7 69 23h24v-338h75v-25h-187v25zM520 246l17 19q12 -12 23.5 -21t31 -16t40.5 -7q36 0 58.5 21.5t22.5 56.5
q0 82 -120 82v24q29 0 50 6t33.5 17t18 24.5t5.5 30.5q0 29 -18.5 47t-50.5 19q-5 -1 -10 -1.5t-10 -1.5t-10 -3t-9.5 -4t-9 -4.5t-8.5 -5t-8 -6t-7.5 -6.5t-6.5 -7l-17 20q21 20 44.5 31.5t52.5 11.5q28 0 50 -10.5t35 -30.5t13 -47q0 -17 -5 -32t-14 -26t-21 -19t-27 -13
v-2q23 -5 40.5 -17t28.5 -32t11 -45q0 -14 -3 -26t-8 -22t-12.5 -19t-17 -15.5t-20.5 -11t-23 -7t-26 -2.5q-26 0 -49 8t-37 18t-27 24z" />
    <glyph glyph-name="uniE637" unicode="&#xe637;" 
d="M490 570zM512 835q-73 0 -142 -23t-124.5 -64.5t-97 -97t-64.5 -124.5t-23 -142q0 -92 36 -175.5t96 -143.5t143.5 -96t175.5 -36t175.5 36t143.5 96t96 143.5t36 175.5q0 73 -23 142t-64.5 124.5t-97 97t-124.5 64.5t-142 23zM512 -31q-113 0 -208.5 55.5t-151 151
t-55.5 208.5t55.5 208.5t151 151t208.5 55.5t208.5 -55.5t151 -151t55.5 -208.5q0 -160 -108 -279q-106 -116 -260 -133q-24 -3 -47 -3zM284 228h82v296h-63v19q41 7 69 23h24v-338h75v-25h-187v25zM754 306h-51v-103h-28v103h-161v19l161 241h28v-235h51v-25zM675 331v134
q0 26 3 60h-3q-4 -8 -8.5 -16.5t-9.5 -17t-11 -16.5l-98 -144h127z" />
    <glyph glyph-name="uniE638" unicode="&#xe638;" 
d="M490 570zM512 835q-73 0 -142 -23t-124.5 -64.5t-97 -97t-64.5 -124.5t-23 -142q0 -92 36 -175.5t96 -143.5t143.5 -96t175.5 -36t175.5 36t143.5 96t96 143.5t36 175.5q0 73 -23 142t-64.5 124.5t-97 97t-124.5 64.5t-142 23zM512 -31q-113 0 -208.5 55.5t-151 151
t-55.5 208.5t55.5 208.5t151 151t208.5 55.5t208.5 -55.5t151 -151t55.5 -208.5q0 -160 -108 -279q-106 -116 -260 -133q-24 -3 -47 -3zM284 228h82v296h-63v19q41 7 69 23h24v-338h75v-25h-187v25zM519 244l16 20q41 -43 95 -43q17 0 32.5 7t27 19.5t18.5 31t7 39.5
q0 29 -10.5 50t-29 32t-44.5 11q-9 0 -17.5 -1.5t-16.5 -4.5t-14.5 -7t-15.5 -9l-19 11l13 166h166v-25h-140l-11 -123q29 18 61 18q31 0 54.5 -12t38.5 -39t15 -66q0 -38 -17 -66.5t-42.5 -42.5t-54.5 -14q-64 0 -112 48z" />
    <glyph glyph-name="uniE639" unicode="&#xe639;" 
d="M512 835q-73 0 -142 -23t-124.5 -64.5t-97 -97t-64.5 -124.5t-23 -142q0 -92 36 -175.5t96 -143.5t143.5 -96t175.5 -36t175.5 36t143.5 96t96 143.5t36 175.5q0 73 -23 142t-64.5 124.5t-97 97t-124.5 64.5t-142 23zM512 -31q-113 0 -208.5 55.5t-151 151t-55.5 208.5
t55.5 208.5t151 151t208.5 55.5t208.5 -55.5t151 -151t55.5 -208.5q0 -160 -108 -279q-106 -116 -260 -133q-24 -3 -47 -3zM490 570zM284 228h82v296h-63v19q41 7 69 23h24v-338h75v-25h-187v25zM725 519q-24 29 -60 29q-45 0 -73 -40.5t-29 -128.5q38 47 87 47q47 0 73 -29
t26 -85q0 -20 -5 -38t-14.5 -32t-21.5 -24.5t-26.5 -16t-30.5 -5.5q-54 0 -85.5 46.5t-31.5 131.5q0 53 10.5 92.5t29.5 62t41.5 33t49.5 10.5q24 0 43 -9t34 -25zM720 312q0 42 -18 66.5t-56 24.5q-45 0 -83 -52q4 -61 26 -95.5t62 -34.5q20 0 35.5 11.5t24.5 32.5t9 47z
" />
    <glyph glyph-name="uniE63A" unicode="&#xe63a;" 
d="M512 835q-73 0 -142 -23t-124.5 -64.5t-97 -97t-64.5 -124.5t-23 -142q0 -92 36 -175.5t96 -143.5t143.5 -96t175.5 -36t175.5 36t143.5 96t96 143.5t36 175.5q0 73 -23 142t-64.5 124.5t-97 97t-124.5 64.5t-142 23zM512 -31q-113 0 -208.5 55.5t-151 151t-55.5 208.5
t55.5 208.5t151 151t208.5 55.5t208.5 -55.5t151 -151t55.5 -208.5q0 -160 -108 -279q-106 -116 -260 -133q-24 -3 -47 -3zM490 570zM260 392q0 93 28 140t79 47q20 0 36.5 -7.5t29.5 -22.5t22 -37t14 -52.5t5 -67.5q0 -94 -28.5 -141.5t-78.5 -47.5q-51 0 -79 47.5
t-28 141.5zM445 392q0 79 -21 120.5t-57 41.5q-18 0 -32.5 -10t-24.5 -30t-15.5 -51t-5.5 -71q0 -41 5.5 -72.5t15.5 -51.5t24.5 -30.5t32.5 -10.5q57 0 73 98q5 30 5 67zM546 235h82v295h-63v20q41 7 69 22h23v-337h76v-26h-187v26z" />
    <glyph glyph-name="uniE63B" unicode="&#xe63b;" 
d="M512 835q-73 0 -142 -23t-124.5 -64.5t-97 -97t-64.5 -124.5t-23 -142q0 -92 36 -175.5t96 -143.5t143.5 -96t175.5 -36t175.5 36t143.5 96t96 143.5t36 175.5q0 73 -23 142t-64.5 124.5t-97 97t-124.5 64.5t-142 23zM512 -31q-113 0 -208.5 55.5t-151 151t-55.5 208.5
t55.5 208.5t151 151t208.5 55.5t208.5 -55.5t151 -151t55.5 -208.5q0 -160 -108 -279q-106 -116 -260 -133q-24 -3 -47 -3zM490 570zM265 386q0 92 28 139t79 47q25 0 44.5 -11.5t33.5 -34.5t21 -58.5t7 -81.5q0 -94 -28 -142t-78 -48q-83 0 -102 119q-5 32 -5 71zM449 386
q0 32 -3.5 58t-10 45.5t-16 32.5t-21.5 19.5t-26 6.5q-37 0 -57.5 -41.5t-20.5 -120.5q0 -81 20.5 -123t57.5 -42q36 0 56.5 42t20.5 123zM527 221q91 78 131.5 137t40.5 109q0 36 -18.5 58.5t-55.5 22.5q-44 0 -81 -45l-18 17q22 25 46.5 38.5t55.5 13.5q47 0 74 -28
t27 -76q0 -28 -10.5 -57t-31.5 -59.5t-48.5 -60.5t-65.5 -65q9 0 15.5 0.5t14.5 1t15.5 1t14.5 0.5h113v-26h-219v18z" />
    <glyph glyph-name="uniE63C" unicode="&#xe63c;" 
d="M512 835q-73 0 -142 -23t-124.5 -64.5t-97 -97t-64.5 -124.5t-23 -142q0 -92 36 -175.5t96 -143.5t143.5 -96t175.5 -36t175.5 36t143.5 96t96 143.5t36 175.5q0 73 -23 142t-64.5 124.5t-97 97t-124.5 64.5t-142 23zM512 -31q-113 0 -208.5 55.5t-151 151t-55.5 208.5
t55.5 208.5t151 151t208.5 55.5t208.5 -55.5t151 -151t55.5 -208.5q0 -160 -108 -279q-106 -116 -260 -133q-24 -3 -47 -3zM490 570zM265 386q0 92 28 139t79 47q25 0 44.5 -11.5t33.5 -34.5t21 -58.5t7 -81.5q0 -94 -28 -142t-78 -48q-83 0 -102 119q-5 32 -5 71zM449 386
q0 32 -3.5 58t-10 45.5t-16 32.5t-21.5 19.5t-26 6.5q-37 0 -57.5 -41.5t-20.5 -120.5q0 -81 20.5 -123t57.5 -42q36 0 56.5 42t20.5 123zM520 246l17 19q12 -12 23.5 -21t31 -16t40.5 -7q36 0 58.5 21.5t22.5 56.5q0 82 -120 82v24q29 0 50 6t33.5 17t18 24.5t5.5 30.5
q0 29 -18.5 47t-50.5 19q-5 -1 -10 -1.5t-10 -1.5t-10 -3t-9.5 -4t-9 -4.5t-8.5 -5t-8 -6t-7.5 -6.5t-6.5 -7l-17 20q21 20 44.5 31.5t52.5 11.5q28 0 50 -10.5t35 -30.5t13 -47q0 -17 -5 -32t-14 -26t-21 -19t-27 -13v-2q23 -5 40.5 -17t28.5 -32t11 -45q0 -14 -3 -26
t-8 -22t-12.5 -19t-17 -15.5t-20.5 -11t-23 -7t-26 -2.5q-26 0 -49 8t-37 18t-27 24z" />
    <glyph glyph-name="uniE63D" unicode="&#xe63d;" 
d="M490 570zM512 835q-73 0 -142 -23t-124.5 -64.5t-97 -97t-64.5 -124.5t-23 -142q0 -92 36 -175.5t96 -143.5t143.5 -96t175.5 -36t175.5 36t143.5 96t96 143.5t36 175.5q0 73 -23 142t-64.5 124.5t-97 97t-124.5 64.5t-142 23zM512 -31q-113 0 -208.5 55.5t-151 151
t-55.5 208.5t55.5 208.5t151 151t208.5 55.5t208.5 -55.5t151 -151t55.5 -208.5q0 -160 -108 -279q-106 -116 -260 -133q-24 -3 -47 -3zM265 386q0 92 28 139t79 47q25 0 44.5 -11.5t33.5 -34.5t21 -58.5t7 -81.5q0 -94 -28 -142t-78 -48q-83 0 -102 119q-5 32 -5 71z
M449 386q0 32 -3.5 58t-10 45.5t-16 32.5t-21.5 19.5t-26 6.5q-37 0 -57.5 -41.5t-20.5 -120.5q0 -81 20.5 -123t57.5 -42q36 0 56.5 42t20.5 123zM754 306h-51v-103h-28v103h-161v19l161 241h28v-235h51v-25zM675 331v134q0 26 3 60h-3q-4 -8 -8.5 -16.5t-9.5 -17
t-11 -16.5l-98 -144h127z" />
    <glyph glyph-name="uniE63E" unicode="&#xe63e;" 
d="M490 570zM512 835q-73 0 -142 -23t-124.5 -64.5t-97 -97t-64.5 -124.5t-23 -142q0 -92 36 -175.5t96 -143.5t143.5 -96t175.5 -36t175.5 36t143.5 96t96 143.5t36 175.5q0 73 -23 142t-64.5 124.5t-97 97t-124.5 64.5t-142 23zM512 -31q-113 0 -208.5 55.5t-151 151
t-55.5 208.5t55.5 208.5t151 151t208.5 55.5t208.5 -55.5t151 -151t55.5 -208.5q0 -160 -108 -279q-106 -116 -260 -133q-24 -3 -47 -3zM265 386q0 92 28 139t79 47q25 0 44.5 -11.5t33.5 -34.5t21 -58.5t7 -81.5q0 -94 -28 -142t-78 -48q-83 0 -102 119q-5 32 -5 71z
M449 386q0 32 -3.5 58t-10 45.5t-16 32.5t-21.5 19.5t-26 6.5q-37 0 -57.5 -41.5t-20.5 -120.5q0 -81 20.5 -123t57.5 -42q36 0 56.5 42t20.5 123zM519 244l16 20q41 -43 95 -43q17 0 32.5 7t27 19.5t18.5 31t7 39.5q0 29 -10.5 50t-29 32t-44.5 11q-9 0 -17.5 -1.5
t-16.5 -4.5t-14.5 -7t-15.5 -9l-19 11l13 166h166v-25h-140l-11 -123q29 18 61 18q31 0 54.5 -12t38.5 -39t15 -66q0 -38 -17 -66.5t-42.5 -42.5t-54.5 -14q-64 0 -112 48z" />
    <glyph glyph-name="uniE63F" unicode="&#xe63f;" 
d="M490 570zM512 835q-73 0 -142 -23t-124.5 -64.5t-97 -97t-64.5 -124.5t-23 -142q0 -92 36 -175.5t96 -143.5t143.5 -96t175.5 -36t175.5 36t143.5 96t96 143.5t36 175.5q0 73 -23 142t-64.5 124.5t-97 97t-124.5 64.5t-142 23zM512 -31q-113 0 -208.5 55.5t-151 151
t-55.5 208.5t55.5 208.5t151 151t208.5 55.5t208.5 -55.5t151 -151t55.5 -208.5q0 -160 -108 -279q-106 -116 -260 -133q-24 -3 -47 -3zM265 386q0 92 28 139t79 47q25 0 44.5 -11.5t33.5 -34.5t21 -58.5t7 -81.5q0 -94 -28 -142t-78 -48q-83 0 -102 119q-5 32 -5 71z
M449 386q0 32 -3.5 58t-10 45.5t-16 32.5t-21.5 19.5t-26 6.5q-37 0 -57.5 -41.5t-20.5 -120.5q0 -81 20.5 -123t57.5 -42q36 0 56.5 42t20.5 123zM725 519q-24 29 -60 29q-45 0 -73 -40.5t-29 -128.5q38 47 87 47q47 0 73 -29t26 -85q0 -20 -5 -38t-14.5 -32t-21.5 -24.5
t-26.5 -16t-30.5 -5.5q-54 0 -85.5 46.5t-31.5 131.5q0 53 10.5 92.5t29.5 62t41.5 33t49.5 10.5q24 0 43 -9t34 -25zM720 312q0 42 -18 66.5t-56 24.5q-45 0 -83 -52q4 -61 26 -95.5t62 -34.5q20 0 35.5 11.5t24.5 32.5t9 47z" />
    <glyph glyph-name="uniE640" unicode="&#xe640;" 
d="M358 9q-9 -9 -22.5 -9t-22.5 9q-9 10 -9 23t9 22l330 328l-329 332q-6 6 -8 14t0 16.5t9 14.5q9 9 22.5 9t22.5 -9l350 -353v-1q0 -1 1 -1q9 -9 9 -22.5t-9 -22.5z" />
    <glyph glyph-name="uniE641" unicode="&#xe641;" 
d="M137 230q-9 -9 -9 -22.5t9 -22.5q10 -9 23 -9t22 9l328 330l332 -329q6 -6 14 -8t16.5 0t14.5 9q9 9 9 22.5t-9 22.5l-353 350h-1q-1 0 -1 1q-3 3 -7 5t-8 3t-8 1q-6 0 -12 -2t-10 -7z" />
    <glyph glyph-name="uniE642" unicode="&#xe642;" 
d="M490 570zM512 835q-73 0 -142 -23t-124.5 -64.5t-97 -97t-64.5 -124.5t-23 -142q0 -92 36 -175.5t96 -143.5t143.5 -96t175.5 -36t175.5 36t143.5 96t96 143.5t36 175.5q0 73 -23 142t-64.5 124.5t-97 97t-124.5 64.5t-142 23zM512 -31q-113 0 -208.5 55.5t-151 151
t-55.5 208.5t55.5 208.5t151 151t208.5 55.5t208.5 -55.5t151 -151t55.5 -208.5q0 -160 -108 -279q-106 -116 -260 -133q-24 -3 -47 -3zM265 386q0 92 28 139t79 47q25 0 44.5 -11.5t33.5 -34.5t21 -58.5t7 -81.5q0 -94 -28 -142t-78 -48q-83 0 -102 119q-5 32 -5 71z
M449 386q0 32 -3.5 58t-10 45.5t-16 32.5t-21.5 19.5t-26 6.5q-37 0 -57.5 -41.5t-20.5 -120.5q0 -81 20.5 -123t57.5 -42q36 0 56.5 42t20.5 123zM553 250q5 -6 10.5 -10.5t11.5 -8t12.5 -6t13.5 -3.5t15 -1q11 0 21 3t20 9t18 15t15 23t12.5 31t8.5 39.5t4 49.5
q-40 -49 -89 -49q-31 0 -52.5 13t-33.5 39t-12 62q0 51 28.5 83.5t69.5 32.5q26 0 47.5 -11t37 -32t24 -53t8.5 -72q0 -45 -7 -80.5t-19 -59t-28.5 -39t-34.5 -22.5t-39 -7q-47 0 -80 35zM714 419q-1 40 -11.5 68.5t-30 45t-47.5 16.5q-9 0 -18 -3.5t-16.5 -9t-14 -14
t-11 -18.5t-6.5 -22.5t-2 -25.5q0 -27 7.5 -46.5t24 -31.5t40.5 -12q47 0 85 53z" />
    <glyph glyph-name="uniE643" unicode="&#xe643;" 
d="M213 370v0h2h-2zM817 693q-30 30 -65 53.5t-74 40t-81.5 25t-86.5 8.5q-59 0 -115 -15.5t-104.5 -44t-87.5 -67.5q-60 -59 -93.5 -138.5t-33.5 -168.5q0 -88 33.5 -168t93.5 -139q59 -60 138.5 -93.5t168.5 -33.5t168 33.5t139 93.5q61 59 94 138t33 169q2 89 -32 168.5
t-95 138.5zM770 126q-51 -51 -118 -80t-142 -29q-76 0 -143 28.5t-117 80.5q-51 51 -80 118t-29 142q0 51 13.5 98.5t37.5 88t58 73.5q25 25 55 45t62.5 34t69 22t73.5 8q74 0 141 -28.5t117 -78.5l2 -2q25 -25 45 -54t34 -62t22 -69.5t8 -74.5q0 -76 -28.5 -143t-80.5 -117
zM385 646l203 -117l203 -116q10 -6 13 -18.5t-3 -22.5l-13 -13l-202 -116l-203 -117q-7 -4 -15 -4t-15 3.5t-11 10.5q-4 12 -4 17v233v236q0 12 8 20t21 8h5q3 0 5.5 -1t4 -1.5t3.5 -1.5z" />
    <glyph glyph-name="uniE645" unicode="&#xe645;" 
d="M490 570zM512 835q-73 0 -142 -23t-124.5 -64.5t-97 -97t-64.5 -124.5t-23 -142q0 -92 36 -175.5t96 -143.5t143.5 -96t175.5 -36t175.5 36t143.5 96t96 143.5t36 175.5q0 73 -23 142t-64.5 124.5t-97 97t-124.5 64.5t-142 23zM512 -31q-113 0 -208.5 55.5t-151 151
t-55.5 208.5t55.5 208.5t151 151t208.5 55.5t208.5 -55.5t151 -151t55.5 -208.5q0 -160 -108 -279q-106 -116 -260 -133q-24 -3 -47 -3zM261 221q90 78 131 137t41 109q0 36 -19 58.5t-56 22.5q-44 0 -80 -45l-19 17q23 25 47 38.5t55 13.5q47 0 74 -28t27 -76
q0 -54 -39 -112t-117 -130q40 3 60 3h113v-26h-218v18zM725 519q-24 29 -60 29q-45 0 -73 -40.5t-29 -128.5q38 47 87 47q47 0 73 -29t26 -85q0 -20 -5 -38t-14.5 -32t-21.5 -24.5t-26.5 -16t-30.5 -5.5q-54 0 -85.5 46.5t-31.5 131.5q0 53 10.5 92.5t29.5 62t41.5 33
t49.5 10.5q24 0 43 -9t34 -25zM720 312q0 42 -18 66.5t-56 24.5q-45 0 -83 -52q4 -61 26 -95.5t62 -34.5q20 0 35.5 11.5t24.5 32.5t9 47z" />
    <glyph glyph-name="uniE646" unicode="&#xe646;" 
d="M512 835q-73 0 -142 -23t-124.5 -64.5t-97 -97t-64.5 -124.5t-23 -142q0 -92 36 -175.5t96 -143.5t143.5 -96t175.5 -36t175.5 36t143.5 96t96 143.5t36 175.5q0 73 -23 142t-64.5 124.5t-97 97t-124.5 64.5t-142 23zM512 -31q-113 0 -208.5 55.5t-151 151t-55.5 208.5
t55.5 208.5t151 151t208.5 55.5t208.5 -55.5t151 -151t55.5 -208.5q0 -160 -108 -279q-106 -116 -260 -133q-24 -3 -47 -3zM490 570zM284 228h82v296h-63v19q41 7 69 23h24v-338h75v-25h-187v25zM725 519q-24 29 -60 29q-45 0 -73 -40.5t-29 -128.5q38 47 87 47q47 0 73 -29
t26 -85q0 -20 -5 -38t-14.5 -32t-21.5 -24.5t-26.5 -16t-30.5 -5.5q-54 0 -85.5 46.5t-31.5 131.5q0 53 10.5 92.5t29.5 62t41.5 33t49.5 10.5q24 0 43 -9t34 -25zM720 312q0 42 -18 66.5t-56 24.5q-45 0 -83 -52q4 -61 26 -95.5t62 -34.5q20 0 35.5 11.5t24.5 32.5t9 47z
" />
    <glyph glyph-name="uniE647" unicode="&#xe647;" 
d="M490 570zM512 835q-73 0 -142 -23t-124.5 -64.5t-97 -97t-64.5 -124.5t-23 -142q0 -92 36 -175.5t96 -143.5t143.5 -96t175.5 -36t175.5 36t143.5 96t96 143.5t36 175.5q0 73 -23 142t-64.5 124.5t-97 97t-124.5 64.5t-142 23zM512 -31q-113 0 -208.5 55.5t-151 151
t-55.5 208.5t55.5 208.5t151 151t208.5 55.5t208.5 -55.5t151 -151t55.5 -208.5q0 -160 -108 -279q-106 -116 -260 -133q-24 -3 -47 -3zM284 228h82v296h-63v19q41 7 69 23h24v-338h75v-25h-187v25zM713 541h-184v25h219v-17q-61 -81 -83 -156t-27 -190h-31q3 74 14 130.5
t33 106.5t59 101z" />
    <glyph glyph-name="uniE648" unicode="&#xe648;" 
d="M490 570zM512 835q-73 0 -142 -23t-124.5 -64.5t-97 -97t-64.5 -124.5t-23 -142q0 -92 36 -175.5t96 -143.5t143.5 -96t175.5 -36t175.5 36t143.5 96t96 143.5t36 175.5q0 73 -23 142t-64.5 124.5t-97 97t-124.5 64.5t-142 23zM512 -31q-113 0 -208.5 55.5t-151 151
t-55.5 208.5t55.5 208.5t151 151t208.5 55.5t208.5 -55.5t151 -151t55.5 -208.5q0 -160 -108 -279q-106 -116 -260 -133q-24 -3 -47 -3zM284 228h82v296h-63v19q41 7 69 23h24v-338h75v-25h-187v25zM527 293q0 23 11 44.5t25.5 35t33.5 24.5v2q-50 33 -50 82q0 20 7 36.5
t19.5 28.5t30 18.5t36.5 6.5q30 0 52 -12.5t33.5 -34t11.5 -48.5t-15.5 -51t-34.5 -39v-3q62 -37 62 -95q0 -19 -8 -36t-22 -29t-34.5 -19.5t-44.5 -7.5q-32 0 -58 12.5t-40.5 35t-14.5 49.5zM720 289q0 20 -8 35t-26 26.5t-31.5 18t-40.5 17.5q-59 -36 -59 -92
q0 -32 24 -53t61 -21q14 0 26.5 3.5t22 9.5t16.5 14.5t11 19t4 22.5zM710 475q0 20 -8 36t-24.5 26.5t-37.5 10.5q-29 0 -47 -19t-18 -48q0 -33 23 -51.5t67 -35.5q45 36 45 81z" />
    <glyph glyph-name="uniE649" unicode="&#xe649;" 
d="M490 570zM512 835q-73 0 -142 -23t-124.5 -64.5t-97 -97t-64.5 -124.5t-23 -142q0 -92 36 -175.5t96 -143.5t143.5 -96t175.5 -36t175.5 36t143.5 96t96 143.5t36 175.5q0 73 -23 142t-64.5 124.5t-97 97t-124.5 64.5t-142 23zM512 -31q-113 0 -208.5 55.5t-151 151
t-55.5 208.5t55.5 208.5t151 151t208.5 55.5t208.5 -55.5t151 -151t55.5 -208.5q0 -160 -108 -279q-106 -116 -260 -133q-24 -3 -47 -3zM284 228h82v296h-63v19q41 7 69 23h24v-338h75v-25h-187v25zM553 250q5 -6 10.5 -10.5t11.5 -8t12.5 -6t13.5 -3.5t15 -1q11 0 21 3
t20 9t18 15t15 23t12.5 31t8.5 39.5t4 49.5q-40 -49 -89 -49q-31 0 -52.5 13t-33.5 39t-12 62q0 51 28.5 83.5t69.5 32.5q26 0 47.5 -11t37 -32t24 -53t8.5 -72q0 -45 -7 -80.5t-19 -59t-28.5 -39t-34.5 -22.5t-39 -7q-47 0 -80 35zM714 419q-1 40 -11.5 68.5t-30 45
t-47.5 16.5q-9 0 -18 -3.5t-16.5 -9t-14 -14t-11 -18.5t-6.5 -22.5t-2 -25.5q0 -27 7.5 -46.5t24 -31.5t40.5 -12q47 0 85 53z" />
    <glyph glyph-name="uniE64A" unicode="&#xe64a;" 
d="M490 570zM512 835q-73 0 -142 -23t-124.5 -64.5t-97 -97t-64.5 -124.5t-23 -142q0 -92 36 -175.5t96 -143.5t143.5 -96t175.5 -36t175.5 36t143.5 96t96 143.5t36 175.5q0 73 -23 142t-64.5 124.5t-97 97t-124.5 64.5t-142 23zM512 -31q-113 0 -208.5 55.5t-151 151
t-55.5 208.5t55.5 208.5t151 151t208.5 55.5t208.5 -55.5t151 -151t55.5 -208.5q0 -160 -108 -279q-106 -116 -260 -133q-24 -3 -47 -3zM261 221q90 78 131 137t41 109q0 36 -19 58.5t-56 22.5q-44 0 -80 -45l-19 17q23 25 47 38.5t55 13.5q47 0 74 -28t27 -76
q0 -54 -39 -112t-117 -130q40 3 60 3h113v-26h-218v18zM531 386q0 62 13 104t37 62t57 20q51 0 79 -47t28 -139q0 -94 -28 -142t-79 -48q-83 0 -102 119q-5 32 -5 71zM716 386q0 26 -2.5 49t-7 41t-11.5 31.5t-15.5 22.5t-19 13.5t-22.5 4.5q-36 0 -57 -41.5t-21 -120.5
q0 -81 21 -123t57 -42t57 42t21 123z" />
    <glyph glyph-name="uniE64B" unicode="&#xe64b;" 
d="M490 570zM512 835q-73 0 -142 -23t-124.5 -64.5t-97 -97t-64.5 -124.5t-23 -142q0 -92 36 -175.5t96 -143.5t143.5 -96t175.5 -36t175.5 36t143.5 96t96 143.5t36 175.5q0 73 -23 142t-64.5 124.5t-97 97t-124.5 64.5t-142 23zM512 -31q-113 0 -208.5 55.5t-151 151
t-55.5 208.5t55.5 208.5t151 151t208.5 55.5t208.5 -55.5t151 -151t55.5 -208.5q0 -160 -108 -279q-106 -116 -260 -133q-24 -3 -47 -3zM261 221q90 78 131 137t41 109q0 36 -19 58.5t-56 22.5q-44 0 -80 -45l-19 17q23 25 47 38.5t55 13.5q47 0 74 -28t27 -76
q0 -54 -39 -112t-117 -130q40 3 60 3h113v-26h-218v18zM551 228h82v296h-63v19q41 7 69 23h23v-338h76v-25h-187v25z" />
    <glyph glyph-name="uniE64C" unicode="&#xe64c;" 
d="M490 570zM512 835q-73 0 -142 -23t-124.5 -64.5t-97 -97t-64.5 -124.5t-23 -142q0 -92 36 -175.5t96 -143.5t143.5 -96t175.5 -36t175.5 36t143.5 96t96 143.5t36 175.5q0 73 -23 142t-64.5 124.5t-97 97t-124.5 64.5t-142 23zM512 -31q-113 0 -208.5 55.5t-151 151
t-55.5 208.5t55.5 208.5t151 151t208.5 55.5t208.5 -55.5t151 -151t55.5 -208.5q0 -160 -108 -279q-106 -116 -260 -133q-24 -3 -47 -3zM261 221q90 78 131 137t41 109q0 36 -19 58.5t-56 22.5q-44 0 -80 -45l-19 17q23 25 47 38.5t55 13.5q47 0 74 -28t27 -76
q0 -54 -39 -112t-117 -130q40 3 60 3h113v-26h-218v18zM527 221q91 78 131.5 137t40.5 109q0 36 -18.5 58.5t-55.5 22.5q-44 0 -81 -45l-18 17q22 25 46.5 38.5t55.5 13.5q47 0 74 -28t27 -76q0 -28 -10.5 -57t-31.5 -59.5t-48.5 -60.5t-65.5 -65q9 0 15.5 0.5t14.5 1
t15.5 1t14.5 0.5h113v-26h-219v18z" />
    <glyph glyph-name="uniE64D" unicode="&#xe64d;" 
d="M490 570zM512 835q-73 0 -142 -23t-124.5 -64.5t-97 -97t-64.5 -124.5t-23 -142q0 -92 36 -175.5t96 -143.5t143.5 -96t175.5 -36t175.5 36t143.5 96t96 143.5t36 175.5q0 73 -23 142t-64.5 124.5t-97 97t-124.5 64.5t-142 23zM512 -31q-113 0 -208.5 55.5t-151 151
t-55.5 208.5t55.5 208.5t151 151t208.5 55.5t208.5 -55.5t151 -151t55.5 -208.5q0 -160 -108 -279q-106 -116 -260 -133q-24 -3 -47 -3zM261 221q90 78 131 137t41 109q0 36 -19 58.5t-56 22.5q-44 0 -80 -45l-19 17q23 25 47 38.5t55 13.5q47 0 74 -28t27 -76
q0 -54 -39 -112t-117 -130q40 3 60 3h113v-26h-218v18zM520 246l17 19q12 -12 23.5 -21t31 -16t40.5 -7q36 0 58.5 21.5t22.5 56.5q0 82 -120 82v24q29 0 50 6t33.5 17t18 24.5t5.5 30.5q0 29 -18.5 47t-50.5 19q-5 -1 -10 -1.5t-10 -1.5t-10 -3t-9.5 -4t-9 -4.5t-8.5 -5
t-8 -6t-7.5 -6.5t-6.5 -7l-17 20q21 20 44.5 31.5t52.5 11.5q28 0 50 -10.5t35 -30.5t13 -47q0 -17 -5 -32t-14 -26t-21 -19t-27 -13v-2q23 -5 40.5 -17t28.5 -32t11 -45q0 -14 -3 -26t-8 -22t-12.5 -19t-17 -15.5t-20.5 -11t-23 -7t-26 -2.5q-26 0 -49 8t-37 18t-27 24z
" />
    <glyph glyph-name="uniE64E" unicode="&#xe64e;" 
d="M490 570zM512 835q-73 0 -142 -23t-124.5 -64.5t-97 -97t-64.5 -124.5t-23 -142q0 -92 36 -175.5t96 -143.5t143.5 -96t175.5 -36t175.5 36t143.5 96t96 143.5t36 175.5q0 73 -23 142t-64.5 124.5t-97 97t-124.5 64.5t-142 23zM512 -31q-113 0 -208.5 55.5t-151 151
t-55.5 208.5t55.5 208.5t151 151t208.5 55.5t208.5 -55.5t151 -151t55.5 -208.5q0 -160 -108 -279q-106 -116 -260 -133q-24 -3 -47 -3zM261 221q90 78 131 137t41 109q0 36 -19 58.5t-56 22.5q-44 0 -80 -45l-19 17q23 25 47 38.5t55 13.5q47 0 74 -28t27 -76
q0 -54 -39 -112t-117 -130q40 3 60 3h113v-26h-218v18zM754 306h-51v-103h-28v103h-161v19l161 241h28v-235h51v-25zM675 331v134q0 26 3 60h-3q-4 -8 -8.5 -16.5t-9.5 -17t-11 -16.5l-98 -144h127z" />
    <glyph glyph-name="uniE663" unicode="&#xe663;" 
d="M540 426l-1 319q0 5 -1 9t-4 7.5t-6.5 6t-8 4t-9.5 1.5q-12 -1 -20 -9.5t-8 -20.5v-317h-330q-12 0 -20.5 -8t-8.5 -20t8.5 -21t20.5 -9h330v-342q0 -8 4 -14.5t10.5 -10t14.5 -3.5q12 0 20.5 9t8.5 21v340h329q12 0 20.5 9t8.5 21t-8.5 20t-20.5 8h-329zM540 426z" />
    <glyph glyph-name="uniE665" unicode="&#xe665;" 
d="M863 463q-7 0 -14 -3.5t-11 -9.5t-4 -12v-346q0 -14 -9.5 -23.5t-23.5 -9.5h-582q-14 0 -23.5 9.5t-9.5 23.5v562q0 13 9.5 23t23.5 10h376q11 0 18.5 9t7.5 20q0 5 -2 10t-5.5 9.5t-8 7t-10.5 2.5h-386q-17 0 -32 -6.5t-25.5 -17.5t-17 -26t-6.5 -32v-581
q0 -33 23.5 -57t57.5 -24h602q34 0 57.5 24t23.5 57v356q0 10 -8.5 17.5t-20.5 7.5zM373 357q-1 -1 -1 -2l-38 -139q-3 -13 6 -23q4 -3 8 -4.5t9 -1.5h6l138 38h1q2 0 4 2l369 369q17 17 17 42q0 29 -21 50l-35 35q-22 22 -51 22q-5 0 -9.5 -1t-9 -2.5t-8.5 -3.5t-8 -4.5
t-7 -5.5l-369 -369v-1zM774 685q4 4 11 3.5t12 -5.5l34 -34q1 -1 2 -3l2 -2q1 -2 1 -4v-3q0 -6 -4 -10l-35 -36l-58 59zM697 608l58 -59l-248 -247l-58 58zM416 319l50 -50l-69 -19z" />
    <glyph glyph-name="uniE67E" unicode="&#xe67e;" 
d="M811 291l-274 276q-10 10 -25 10q-7 0 -13 -2.5t-10 -7.5l-279 -278q-9 -9 -9 -21.5t9 -21.5q12 -9 24.5 -7.5t18.5 7.5l228 227v-397q0 -13 9 -22t22 -9t22 9t9 22v399l225 -227q5 -5 10.5 -7t11.5 -2h4q3 0 5 1t4.5 2t4.5 2.5t3 3.5q9 8 9 21t-9 22v0zM848 662h-672
q-4 0 -8 1t-7.5 3t-6.5 5t-5 6t-3 7t-1 8q0 13 9 22t22 9h672q13 0 22 -9t9 -21.5t-9 -21.5t-22 -9v0zM848 662z" />
    <glyph glyph-name="uniE67F" unicode="&#xe67f;" 
d="M512 767q-104 0 -192 -51.5t-139.5 -139.5t-51.5 -192t51.5 -192t139.5 -139.5t192 -51.5q78 0 149 30.5t122 81.5t81.5 122t30.5 149q0 104 -51.5 192t-139.5 139.5t-192 51.5zM319 534q1 1 1 2q3 7 8 11q2 1 3 2q14 10 17 11q5 1 14 1h14q2 0 5 1q4 1 9 -1t8.5 -6
t5.5 -9q1 -5 1 -5.5t-4 -5.5q-3 -5 -9 -14t-7 -11q-6 -8 -15 -14q-7 -5 -14 -4q-8 0 -18 4q-8 2 -9.5 3.5t-6.5 10.5l-3 8q-3 8 0 16zM398 239q-2 -3 -5 -4q-6 -4 -14.5 -9t-12.5 -7t-11 -4t-15.5 -1.5t-19.5 2.5q-5 1 -6 2t-3 6q-4 15 -1 23.5t17 19.5l2 2q5 4 13 4
q6 1 13 1.5t12 1.5q2 0 5 1t4.5 1t4 0.5t5.5 -0.5q10 -2 12 -8.5t2 -23.5q0 -3 -1 -4.5t-1 -2.5zM408 395q0 -5 -1.5 -9.5t-3.5 -8.5t-3.5 -6.5t-5.5 -6t-5.5 -5t-6.5 -4.5t-6.5 -4t-7.5 -4l-8 -4q-2 -1 -14.5 -10.5t-23.5 -13.5t-24 0q-5 2 -11.5 7t-10.5 7q-3 6 -8 11
q1 1 1 2v4q0 1 1 4l4 7q1 2 3 4t3.5 3t4 3t4.5 3t4.5 2.5t3.5 2.5q7 5 18.5 20.5t16.5 25.5q1 3 6 3q9 0 15 1q18 2 24 0q13 -3 26 -17q5 -5 6 -7.5t-1 -9.5zM504 429v-21q-3 -14 -6 -44.5t-6 -43.5q-6 -20 -1.5 -63.5t2.5 -57.5v-3q0 -6 -5 -7q-9 -1 -10 -1t-3.5 3t-7.5 5
q-3 1 -4.5 0.5t-3.5 -0.5l-2 -1q-14 -2 -18 15q-2 11 -1 16q0 2 3.5 13.5t1.5 17.5l-3 7q-3 8 -2 11q0 1 4 9t2 14l-2 2q-4 3 -4 4q-1 3 1.5 10t5.5 14t5 14.5t1 11.5l-3 2q-3 3 -3 4q0 4 3 8l4 8q3 4 2 8q0 1 -3 4.5t-3 4.5q-1 3 -0.5 8.5t1 8.5t2 7.5t2.5 6.5q3 8 2 29.5
t0 27.5q1 7 5 7q1 1 3.5 1t4.5 1h4q2 1 4.5 1.5t4.5 0.5q8 3 13 2h2q2 0 3 -0.5t2.5 -1.5t2.5 -2q1 -2 2 -3.5t1.5 -2.5t2 -3t2.5 -3q2 -3 1 -12.5t-2 -13.5t-3.5 -12.5t-3.5 -10.5zM507 510q-3 1 -7.5 3.5t-8 4.5t-7 5t-6.5 6q-3 6 -4 10v4q0 2 2 3q13 8 28.5 12.5t39 8.5
t33.5 7q8 2 22 2h27q14 0 20 3q5 2 8 1t8 -3q14 -7 14 -29q0 -4 -0.5 -5t-4.5 -4q-11 -9 -19 -8t-28 -1q-3 -1 -7 -1.5t-7.5 -1t-7.5 -1.5h-8l-8 -2q-4 0 -8.5 -0.5t-8.5 -1.5t-8 -1.5t-7 -1.5t-16.5 -6t-22.5 -6q-4 0 -8 3zM628 277q-1 -5 -2 -6q-10 -6 -21.5 -8.5t-25 -1
t-22.5 3.5t-24 5q-5 2 -6 5q-17 31 -3 89q1 5 1 11.5t-0.5 12.5t-1 13t-0.5 11t4 4t7.5 0.5t7.5 1.5q5 1 5.5 2t-2.5 4q-14 10 -15 25q1 1 2 4q4 1 6.5 2.5t4.5 3t3.5 3.5t3.5 4t5 3q2 0 4.5 0.5t4.5 0.5h4q4 1 6 3q1 1 2.5 4t3.5 4q5 4 17.5 6.5t16.5 5.5q4 2 7 1
q4 -1 5.5 -4t2.5 -4q4 -2 28 0h1q2 0 3 -3q1 -7 -3 -22q-4 -2 -8 -3.5t-8 -2.5t-8.5 -2.5t-9 -2.5t-8.5 -3l-8 -4q-3 -1 -5.5 -4t-6 -6t-5.5 -4q-4 -2 -9.5 -3t-9.5 -2.5t-6 -5.5q-2 -2 0 -6q7 -12 0 -39q-4 -12 -2 -25q0 -3 2 -13.5t2 -14.5t1.5 -4.5t5.5 -1.5q9 -3 29 -3
q5 0 8 -2h1q5 -2 7 -7l2 -2q6 -11 6 -23zM753 309l-5 -5q-5 -3 -16.5 -3.5t-19.5 2.5q-3 2 -9 7.5t-9 7.5q-4 1 -8.5 2t-8.5 2t-9 2.5t-9 2.5q-2 0 -4 1.5t-4.5 2.5t-4.5 2.5t-4.5 2.5t-4.5 2q-5 1 -10.5 2.5t-9.5 2t-8.5 2t-8.5 2.5t-7.5 3t-6.5 5q-7 7 -8 15v6
q0 3 2.5 6.5t6 5.5t7.5 2h5h7h5q2 0 3 2l4 2l2 4l4 2q4 2 14 4.5t15 4.5q6 4 23 21l2 2q4 4 10 3q8 -1 14 -3t11 -7t7 -11q1 -4 0.5 -5t-2.5 -4q0 -1 -1.5 -3.5t-2.5 -4.5q-2 -2 -4 -3.5t-5 -2.5q-2 -1 -5.5 -2t-6 -2t-5.5 -2.5t-5 -3.5t-3 -5q-2 -4 3 -7q8 -6 27.5 -11
t31.5 -13t14 -25v-6q0 -2 -3 -5z" />
    <glyph glyph-name="uniE6D5" unicode="&#xe6d5;" 
d="M398 896q-108 0 -199.5 -53.5t-145 -145t-53.5 -199.5t53.5 -199.5t145 -145t199.5 -53.5q125 0 227 71l296 -295q1 -1 3 -2t4 -1.5t4.5 -0.5t4.5 1.5t3 2.5l80 80q10 10 0 20l-295 295q71 102 71 227q0 81 -31.5 154.5t-85 127t-127 85t-154.5 31.5zM398 194
q-62 0 -118.5 24t-97 64.5t-64.5 97t-24 118.5q0 126 89 215t215 89t215 -89t89 -215t-89 -215t-215 -89z" />
    <glyph glyph-name="uniE6FB" unicode="&#xe6fb;" horiz-adv-x="1127" 
d="M0 383q0 -75 50.5 -132.5t125.5 -69.5l35 -3h196v51h-193l-24 2q-51 8 -96.5 57.5t-45.5 98.5q0 27 14 58t44 61t70 43l-17 44q-1 2 -1 4l-2 4v4q-1 2 -1.5 3.5t-1 3.5t-0.5 4v4q0 20 11.5 40.5t34 36t50.5 15.5q5 0 10 -1t10 -2.5t10.5 -3.5t10 -4.5t8.5 -6t8 -6.5
l55 -39l46 63q41 61 105.5 97t138.5 36q69 0 135 -39t107 -102t42 -130v-48l50 -13q42 -14 67.5 -49t25.5 -77q0 -49 -42 -99.5t-92 -58.5h-31h-193v-51h195l35 3q76 12 126 69.5t50 132.5q0 66 -39 119t-101 75q-2 87 -47 160.5t-121.5 116t-166.5 42.5q-97 0 -178 -50
t-122 -132q-42 45 -105 45q-58 0 -99 -40t-41 -96q0 -15 3 -29t9 -27q-54 -25 -86 -74.5t-32 -109.5zM538 589v-653l-231 141v-51l256 -154l256 154v51l-230 -141v653h-51z" />
    <glyph glyph-name="uniE703" unicode="&#xe703;" 
d="M421 -58q30 -24 56 -44q13 -10 21 -16l14 -10l14 10q3 2 8.5 6t12.5 10q27 20 56 44q29 25 57 50t56.5 52t55.5 55q190 198 236 367q3 13 5.5 25t4 24.5t2.5 24.5t1 24q0 76 -22.5 140.5t-60 107t-89 64.5t-107 20t-116 -32.5t-114.5 -87.5q-117 125 -252 118
q-114 -6 -187 -103q-70 -92 -70 -227q0 -47 13 -98q46 -169 236 -367q27 -28 55.5 -55t56.5 -52t57 -50z" />
    <glyph glyph-name="uniE704" unicode="&#xe704;" 
d="M421 -58q30 -24 56 -44q13 -10 21 -16l14 -10l14 10q3 2 8.5 6t12.5 10q26 20 56 44q44 37 86.5 76.5t82.5 80.5q190 198 236 367q3 13 5.5 25t4 24.5t2.5 24.5t1 24q0 76 -22.5 140.5t-60 107t-89 64.5t-107 20t-116 -32.5t-114.5 -87.5q-117 125 -252 118
q-114 -6 -187 -103q-70 -92 -70 -227q0 -47 13 -98q46 -169 236 -367q27 -28 55.5 -55t56.5 -52t57 -50zM49 564q0 66 19.5 122t52.5 92.5t78 54.5t93.5 14t101.5 -35t100 -86l18 -21l18 21q40 47 85 77t87.5 38.5t83.5 2.5t75 -29.5t59.5 -58.5t40 -85t14.5 -107
q0 -21 -3 -42.5t-9 -43.5q-42 -157 -225 -347q-75 -78 -165 -153q-61 -51 -61 -50q-49 40 -61 50q-90 74 -165 153q-89 92 -146 179.5t-79 167.5q-12 45 -12 86z" />
    <glyph glyph-name="uniE705" unicode="&#xe705;" 
d="M1005 795q0 1 0.5 3t0.5 8l2 10v13t-1 13t-3.5 11.5t-6.5 8.5l-38 29q-3 2 -7 3.5t-8.5 1.5t-9.5 -0.5t-10 -2t-9.5 -2.5t-8.5 -2.5t-7 -3t-5 -1.5l-1 -1l-29 -38l112 -87zM426 285l-3 -118l115 31l423 541l-37 29l-415 -530l-42 -15l5 44l414 531l-37 29zM16 -128h885
v699l-46 -47v-605h-792v792h605l47 46h-699v-885z" />
    <glyph glyph-name="uniE707" unicode="&#xe707;" 
d="M524 605zM465 605q0 16 8 29.5t21.5 21t29.5 7.5q11 0 22 -4.5t19 -12.5t12.5 -18.5t4.5 -22.5q0 -16 -8 -29.5t-21.5 -21t-28.5 -7.5q-24 0 -41.5 17t-17.5 41zM652 128h-70v372h-186v-46h69v-326h-69v-47h256v47zM1024 384q0 139 -68.5 257t-186.5 186.5t-257 68.5
t-257 -68.5t-186.5 -186.5t-68.5 -257t68.5 -257t186.5 -186.5t257 -68.5t257 68.5t186.5 186.5t68.5 257zM47 384q0 95 36.5 181t99 148.5t148.5 99t181 36.5t181 -36.5t148.5 -99t99 -148.5t36.5 -181t-36.5 -181t-99 -148.5t-148.5 -99t-181 -36.5t-181 36.5t-148.5 99
t-99 148.5t-36.5 181z" />
    <glyph glyph-name="uniE70E" unicode="&#xe70e;" 
d="M675 -128q4 0 10 0.5t22 5.5t28.5 14t22.5 28t10 45v838q0 26 -9.5 45t-23.5 28t-27.5 14t-23.5 5l-9 1h-326q-4 0 -10 -0.5t-22 -5.5t-28.5 -14t-22.5 -28t-10 -45v-838q0 -26 10 -45t22.5 -28t28.5 -14t22 -5.5t10 -0.5h326zM303 803q0 29 20 40q14 6 26 6h326
q4 0 11.5 -1.5t14.5 -4.5q7 -4 11.5 -9t6.5 -12.5t2 -18.5v-23h-418v23zM303 733h418v-628h-418v628zM303 -35v93h418v-93q0 -29 -20 -40q-7 -3 -14.5 -4.5t-11.5 -1.5h-326q-12 0 -26 6q-3 2 -5.5 3.5t-4.5 3.5t-3.5 4.5t-3 5.5t-2.5 6.5t-1 7.5v9zM576 826h-128
q-6 0 -6 -10v-3q0 -10 6 -10h128q1 0 2.5 1.5t2.5 3.5t1 5v3q0 4 -2 7t-4 3zM512 -12zM465 -11.5q0 19.5 14 33t33 13.5t33 -13.5t14 -33t-14 -33t-33 -13.5t-33 13.5t-14 33z" />
    <glyph glyph-name="uF022C" unicode="&#xf022c;" 
d="M720 547q2 4 2 6q0 6 -3 10.5t-8.5 7.5t-12.5 3h-106h-1q-3 0 -7 -1q-7 -2 -11.5 -7.5t-4.5 -12.5v-1v-1v-3v-379q0 -11 7 -18.5t16 -7.5q5 0 9.5 2t7.5 5.5t5 8.5t2 10v362h54l-31 -123q-1 -5 0 -11q-1 -7 0 -12l32 -125q-3 0 -5.5 -1t-5 -2.5t-4.5 -3.5t-3 -4t-2 -4.5
t-1 -5.5q0 -9 7 -15t17 -6h24q10 0 17 6t7 15v1v1q1 5 -1 10l-37 146l37 145v2v3zM540 498q0 1 -1 3q0 4 -2 6q-6 11 -20 11q-1 0 -2.5 0.5t-3 0.5t-2.5 -1h-64v80q0 3 -1 6t-2 5.5t-2.5 5t-3.5 4t-4.5 3t-5 2t-5.5 0.5q-9 0 -16 -7.5t-7 -18.5v-80h-64q-2 1 -3 1t-3 -0.5
t-3 -0.5q-6 0 -11.5 -3t-8.5 -8l-2 -6v-1q0 -1 -1 -2v-1v-1v-2v-272v-2v-1v-1q0 -7 4.5 -12.5t11.5 -7.5q4 -2 7 -2h1h191v0q2 0 3.5 0.5t3.5 1.5q16 5 16 20v1v3v272v1v1v1v1zM398 239h-49v94h49v-94zM398 376h-49v99h49v-99zM494 239h-49v94h49v-94zM494 376h-49v99h49
v-99zM512 815q-117 0 -216 -58t-157 -157t-58 -216t58 -216t157 -157t216 -58t216 58t157 157t58 216q0 87 -34.5 167t-92 137.5t-137.5 92t-167 34.5zM512 9q-102 0 -188 50.5t-136.5 136.5t-50.5 188t50.5 188t136.5 136.5t188 50.5t188 -50.5t136.5 -136.5t50.5 -188
q0 -61 -19 -118t-54 -103t-81 -81t-103 -54t-118 -19z" />
    <glyph glyph-name="uF022F" unicode="&#xf022f;" 
d="M688 197h-165v76h163v1h1h1v-1q8 0 15 7v0l1 1q6 6 6 14v1v1v200v1v0v1q0 8 -6 14v1h-1v1q-3 3 -7 4.5t-8 1.5h-1h-1h-163v79q0 7 -3 12.5t-8 8.5t-11 3q-9 0 -15.5 -7t-6.5 -17v-79h-143h-1h-1q-9 0 -15 -6v-1h-1v-1q-6 -6 -6 -14v-1v-1v-200v0v-1v-1q0 -9 8 -16
q3 -3 6.5 -4.5t7.5 -1.5v1h1v-1h1h143v-96v-1v-1q0 -5 2 -9t6 -7q3 -3 6.5 -4.5t7.5 -1.5h1v0h1h185q10 0 17 6.5t7 15.5t-7 15.5t-17 6.5zM479 477v-58h-124v58h124zM479 317h-123l-1 58h124v-58zM666 317h-143v58h143v-58zM666 477v-58h-143v58h143zM512 816
q-59 0 -114.5 -15.5t-103 -43.5t-87.5 -68t-68 -87.5t-43.5 -103t-15.5 -114.5q0 -117 58 -216.5t157.5 -157.5t216.5 -58t216.5 58t157.5 157.5t58 216.5q0 88 -34.5 168t-92 137.5t-137.5 92t-168 34.5zM512 8q-102 0 -188.5 50.5t-137 137t-50.5 188.5t50.5 188.5
t137 137t188.5 50.5q76 0 145.5 -30t120 -80.5t80.5 -120t30 -145.5q0 -149 -103 -258q-101 -106 -246 -117q-14 -1 -27 -1z" />
    <glyph glyph-name="uF0235" unicode="&#xf0235;" 
d="M511 803q-88 0 -168.5 -34.5t-138.5 -92.5t-92.5 -138.5t-34.5 -168.5t34.5 -168.5t92.5 -138.5t138.5 -92.5t168.5 -34.5t168.5 34.5t138.5 92.5t92.5 138.5t34.5 168.5q0 44 -9 87t-25.5 81.5t-40 73.5t-53 64.5t-64.5 53t-73.5 40t-81.5 25.5t-87 9zM511 -9
q-103 0 -190 50.5t-137.5 137.5t-50.5 190q0 77 30 147t80.5 120.5t120.5 80.5t147 30q102 0 189.5 -50.5t138 -138t50.5 -189.5q0 -51 -13.5 -100t-38 -90.5t-59.5 -76.5t-76.5 -59.5t-90.5 -38t-100 -13.5zM390 529q3 -5 8.5 -8.5t11.5 -3.5t11 2q6 3 9.5 8.5t3.5 11.5
t-3 12l-27 52q-4 8 -13.5 11t-17.5 -1q-6 -3 -9.5 -8.5t-3.5 -11.5t3 -12zM521 390q-5 3 -11 4t-12 -1.5t-10 -7.5l-38 -49q-10 6 -16 10v32v2q-1 1 -1 2l16 20q8 10 13.5 18t10 16t7.5 13t5.5 10t3 7t1.5 3q3 9 -0.5 17.5t-12.5 12.5q-3 1 -5 1h-5h-1h-152q-6 0 -11.5 -3
t-8.5 -8.5t-3 -11.5q0 -10 7 -16.5t16 -6.5h114q-49 -77 -143 -147q-8 -6 -9.5 -15.5t4.5 -16.5q7 -10 19 -10q1 0 3 1h4q2 1 3.5 2t3.5 2q8 6 16.5 12.5t16.5 13.5l14 12q8 7 14.5 13t12.5 12v-187q0 -10 7 -17t16.5 -7t16.5 7t7 17v145l12 -8q6 -4 12 -9t11.5 -9.5
t10.5 -9t9 -9.5q7 -8 18 -8q9 0 15 5q8 7 8.5 16.5t-5.5 16.5q-4 5 -8 9t-9 8t-9.5 8t-9.5 8l37 48q5 8 4 17.5t-9 15.5zM588 615q-10 0 -16.5 -6.5t-6.5 -16.5v-446q0 -7 3 -12t8.5 -8.5t11.5 -3.5q10 0 16.5 7t6.5 17v446q0 10 -6.5 16.5t-16.5 6.5zM660 445q-7 7 -16.5 7
t-16.5 -7t-7 -16.5t7 -16.5l80 -79q7 -7 16 -7q3 0 6 0.5t6 2t5 4.5q7 6 7 16t-7 17z" />
    <glyph glyph-name="uF0253" unicode="&#xf0253;" 
d="M528 831q-117 0 -216.5 -57.5t-157 -156.5t-57.5 -216t57.5 -216.5t157 -157t216.5 -57.5q87 0 167 34t137.5 92t91.5 137.5t34 167.5q0 70 -21.5 135.5t-61.5 118.5t-93 93t-118.5 61.5t-135.5 21.5zM528 25q-44 0 -86.5 10t-79 28.5t-69.5 44.5t-58.5 58.5t-44 69.5
t-28.5 79t-10 86q0 101 50.5 187.5t137 137t188.5 50.5q76 0 145.5 -30t119.5 -80t80 -119.5t30 -145.5q0 -149 -102 -257q-101 -107 -245 -118q-15 -1 -28 -1zM662 313l21 31q5 8 3 17.5t-10 14.5q-6 3 -11.5 2.5t-11 -4t-9.5 -8.5l-20 -31v-1l-1 -1l-55 43q-7 6 -16 6
q-10 0 -17 -7q-4 -5 -4.5 -11t2 -12t7.5 -10l126 -100q5 -4 11.5 -5t12 0.5t9.5 6.5q6 7 4.5 16.5t-8.5 15.5l-39 30q2 1 2.5 2t1.5 2.5t2 2.5zM490.5 239q9.5 0 16.5 7.5t7 17.5v138h168q6 0 11 2q3 1 5.5 3t4.5 4.5t3.5 5t2 5.5t0.5 7v147q0 5 -2 10t-5.5 8.5t-7.5 5.5
q-6 2 -12 2l-189 1h-1v0h-1q-3 0 -6 -1t-5.5 -2.5t-4.5 -3.5v0l-1 -1q-7 -7 -7 -16v-1v0v-1v-313q0 -10 7 -17.5t16.5 -7.5zM514 556h149v-31h-149v31zM514 478h149v-29h-149v29zM354 519q3 -9 11.5 -13.5t17 -1.5t12.5 12t0 18l-20 54q-3 8 -9 12.5t-13 4.5l-7 -1
q-9 -3 -12.5 -12t-0.5 -19zM732 216h-335v2v222q0 4 -1 7.5t-3 6.5t-5 5.5t-6 3.5q-3 2 -6.5 2.5t-6.5 0.5h-50q-11 0 -18.5 -6.5t-7.5 -16.5q0 -6 3.5 -11.5t9.5 -8.5t13 -3h34v-202v-2h-27q-6 0 -12 -3t-9 -8t-3 -11t3 -11t9 -8t12 -3h406q10 0 17 6.5t7 15.5t-7 15.5
t-17 6.5zM527.5 834q-87.5 0 -168 -34.5t-138.5 -92.5t-92 -138t-34 -168t34 -168.5t92 -138.5t138.5 -92t168 -34t168 34t138.5 92t92 138.5t34 168.5t-34 168t-92 138t-138.5 92.5t-168 34.5zM528 24q-103 0 -189.5 50.5t-137 137.5t-50.5 189q0 76 30 146t80.5 120.5
t120 80t146.5 29.5q102 0 188.5 -50.5t137 -137t50.5 -188.5q0 -149 -102 -258q-101 -107 -246 -118q-15 -1 -28 -1z" />
  </font>
</defs>
</svg>
